<svg
  width="153"
  height="40"
  viewBox="0 0 153 40"
  fill="none"
  xmlns="http://www.w3.org/2000/svg"
>
<circle cx="20" cy="20" r="20" fill="#55F5A3" />
<path
    d="M21.8025 18.1328C22.796 19.1264 22.796 20.7372 21.8025 21.7308C20.8089 22.7243 19.1981 22.7243 18.2045 21.7308C17.211 20.7372 17.211 19.1264 18.2045 18.1328C19.1981 17.1393 20.8089 17.1393 21.8025 18.1328Z"
    fill="black"
  />
<path
    d="M29.773 22.4904C30.4509 22.5116 31.1193 22.2507 31.6367 21.7333C32.6293 20.7407 32.6293 19.1293 31.6357 18.1357C30.6431 17.1431 29.0317 17.1431 28.0391 18.1357C27.5217 18.6531 27.2355 19.3595 27.2809 20.028C27.3147 20.6467 27.1774 21.2676 26.7128 21.7323C26.2482 22.1969 25.6104 22.2793 24.9673 22.2993C24.3555 22.2758 23.7763 22.4857 23.2915 22.8969C23.2349 22.9444 23.18 22.9948 23.1268 23.048C23.1248 23.0499 23.1229 23.0519 23.1209 23.0538C23.1194 23.0554 23.1178 23.057 23.1162 23.0586C22.9818 23.193 22.8655 23.3387 22.7675 23.4927C22.4818 23.9351 22.3359 24.4474 22.3686 24.9403C22.4024 25.5591 22.2651 26.18 21.8005 26.6446C21.3358 27.1092 20.698 27.1916 20.055 27.2116C19.3675 27.1852 18.7213 27.4535 18.2039 27.9709C17.2113 28.9635 17.2113 30.5749 18.206 31.5675C19.1986 32.5601 20.8089 32.5611 21.8026 31.5675C22.32 31.0501 22.5872 30.3499 22.5565 29.6752C22.5513 29.0955 22.6632 28.4344 23.1278 27.9698C23.5924 27.5052 24.1732 27.389 24.8332 27.4028L24.8606 27.4028C25.3923 27.4193 25.9181 27.2625 26.3698 26.9445C26.4911 26.8598 26.6067 26.7634 26.7149 26.6551C26.7167 26.6533 26.7185 26.6515 26.7203 26.6497C26.7217 26.6484 26.723 26.647 26.7244 26.6456C26.9848 26.3852 27.1769 26.0824 27.3007 25.7595C27.4261 25.4379 27.484 25.0973 27.4689 24.7629C27.4636 24.1832 27.5755 23.5221 28.0401 23.0575C28.5048 22.5929 29.0855 22.4767 29.7455 22.4904H29.773Z"
    fill="black"
  />
<path
    d="M19.9356 12.6531C20.6135 12.6742 21.2819 12.4134 21.7993 11.896C22.792 10.9034 22.792 9.29197 21.7983 8.29831C20.8057 7.30571 19.1943 7.30571 18.2017 8.29831C17.6843 8.81573 17.3981 9.52216 17.4435 10.1906C17.4773 10.8094 17.34 11.4303 16.8754 11.8949C16.4108 12.3595 15.773 12.4419 15.1299 12.462C14.5181 12.4385 13.9389 12.6483 13.4541 13.0595C13.3976 13.1071 13.3426 13.1574 13.2894 13.2106C13.2874 13.2126 13.2855 13.2145 13.2835 13.2165C13.282 13.218 13.2804 13.2196 13.2788 13.2212C13.1444 13.3556 13.0281 13.5014 12.9301 13.6553C12.6444 14.0978 12.4985 14.6101 12.5312 15.1029C12.565 15.7217 12.4277 16.3426 11.9631 16.8072C11.4985 17.2718 10.8607 17.3542 10.2176 17.3743C9.53016 17.3479 8.88391 17.6161 8.36649 18.1335C7.37389 19.1261 7.37389 20.7375 8.3686 21.7301C9.36121 22.7227 10.9715 22.7238 11.9652 21.7301C12.4826 21.2127 12.7498 20.5126 12.7192 19.8378C12.7139 19.2581 12.8258 18.5971 13.2904 18.1325C13.7551 17.6678 14.3358 17.5517 14.9958 17.5654H15.0233C15.5549 17.582 16.0807 17.4251 16.5325 17.1071C16.6537 17.0225 16.7693 16.926 16.8775 16.8178C16.8793 16.816 16.8811 16.8142 16.8829 16.8124C16.8843 16.811 16.8857 16.8096 16.887 16.8083C17.1475 16.5479 17.3396 16.2451 17.4634 15.9221C17.5887 15.6006 17.6467 15.2599 17.6315 14.9255C17.6262 14.3458 17.7381 13.6848 18.2028 13.2201C18.6674 12.7555 19.2482 12.6394 19.9081 12.6531H19.9356Z"
    fill="black"
  />
<path
    d="M59.5955 18.4628H52.6952V11.0341H49.1573V27.9681H52.6952V21.6215H59.5955V27.9681H63.1334V11.0341H59.5955V18.4628Z"
    fill="black"
  />
<path
    d="M67.9579 9.53369C66.6597 9.53369 65.5998 10.5939 65.5998 11.8925C65.5998 13.191 66.6597 14.2512 67.9579 14.2512C69.2561 14.2512 70.316 13.191 70.316 11.8925C70.316 10.5939 69.2561 9.53369 67.9579 9.53369Z"
    fill="black"
  />
<path d="M69.7122 15.5674H66.1744V27.9681H69.7122V15.5674Z" fill="black" />
<path
    d="M94.0171 15.2457C93.8124 15.2457 91.7365 15.0994 90.5085 16.5033V10.4491H86.9706V27.9681H90.5085V21.2998C90.5085 20.5394 90.9763 18.4043 93.0815 18.4043C95.3621 18.4043 95.3621 20.3054 95.3621 21.0658V27.9681H98.8999V19.9837C98.8999 19.7789 98.6953 15.2457 94.0171 15.2457Z"
    fill="black"
  />
<path
    d="M108.549 15.2455C108.344 15.2455 106.268 15.0993 105.04 16.5031V15.7135H101.502V27.9679H105.04V21.2996C105.04 20.5392 105.508 18.4042 107.613 18.4042C109.894 18.4042 109.894 20.3052 109.894 21.0657V27.9679H113.432V19.9835C113.432 19.7788 113.227 15.2455 108.549 15.2455Z"
    fill="black"
  />
<path
    d="M121.881 15.2456C118.08 15.2456 115.01 18.1703 115.01 21.7676C115.01 25.365 118.08 28.2897 121.881 28.2897C125.682 28.2897 128.752 25.365 128.752 21.7676C128.752 18.1703 125.682 15.2456 121.881 15.2456ZM121.881 25.131C120.01 25.131 118.49 23.6979 118.49 21.7676C118.49 19.8373 120.01 18.4042 121.881 18.4042C123.753 18.4042 125.273 19.8373 125.273 21.7676C125.273 23.6979 123.753 25.131 121.881 25.131Z"
    fill="black"
  />
<path
    d="M137.385 24.9937C135.181 25.2481 135.39 23.3178 135.39 23.3178V18.726H138.489V15.5674H135.39V10.4491L131.852 11.2681V15.5674H129.425V18.726H131.852V23.1423C131.852 27.9681 135.565 27.9681 136.209 27.9681C137.378 27.9681 138.771 27.6683 138.771 27.6683L138.428 24.7992C137.782 24.9527 137.385 24.9937 137.385 24.9937Z"
    fill="black"
  />
<path
    d="M152.932 22.0309C152.932 17.5561 149.949 15.2456 146.704 15.2456C142.961 15.2456 139.92 18.1703 139.92 21.7676C139.92 25.365 143.107 28.221 146.85 28.2897C149.468 28.338 151.261 26.9312 151.86 26.0991C151.875 26.0786 151.886 26.0582 151.886 26.0582L149.788 24.2127C148.591 25.6122 146.793 25.4235 146.793 25.4235C145.6 25.3314 144.103 24.8093 143.635 23.23H152.933V22.0309H152.932ZM143.692 20.4223C143.944 18.8678 145.388 18.258 146.645 18.258C147.903 18.258 149.192 18.7903 149.598 20.4223H143.692Z"
    fill="black"
  />
<path
    d="M81.5464 27.9593C78.9149 27.813 77.7454 28.1055 76.4297 27.9593C75.6753 27.8759 75.0072 26.7133 76.0408 25.7087C76.6738 25.9237 77.3594 26.0407 78.0743 26.0407C81.3037 26.0407 83.922 23.6512 83.922 20.7031C83.922 19.482 83.4074 18.3648 82.6604 17.4801C83.1531 16.5149 84.9088 16.6992 84.9088 16.6992C84.9088 15.968 84.9088 13.7745 84.9088 13.7745C84.4878 13.4864 83.349 13.6399 82.8621 13.7745C82.1224 13.9792 81.004 14.9327 80.9602 16.0704C80.8754 16.0221 80.7891 15.9768 80.7043 15.9344C79.4705 15.3231 78.3506 15.3655 78.0743 15.3655C74.8449 15.3655 72.2266 17.755 72.2266 20.7031C72.2266 22.1991 72.902 23.5503 73.9868 24.5184C73.5877 24.7845 72.3363 25.6897 72.3363 27.5206C72.3363 29.2754 73.8523 30.5506 75.2601 30.7377C77.453 31.0302 80.3447 30.5359 81.2262 30.8021C81.985 31.0302 82.1312 32.0539 82.1312 32.2001L85.2012 31.4689C85.2012 29.8603 84.0317 28.1055 81.5464 27.9593ZM78.0743 18.1791C79.4675 18.1791 80.5961 19.308 80.5961 20.7016C80.5961 22.0952 79.4675 23.2242 78.0743 23.2242C76.6811 23.2242 75.5525 22.0952 75.5525 20.7016C75.5525 19.308 76.6826 18.1791 78.0743 18.1791Z"
    fill="black"
  />
</svg>
