<svg
  width="350"
  height="305"
  viewBox="0 0 350 305"
  fill="none"
  xmlns="http://www.w3.org/2000/svg"
>
<g clip-path="url(#clip0_535_338)">
<rect y="225" width="350" height="80" rx="16" fill="#F5F3EB" />
<path
      d="M282.663 267.032C282.663 268.684 281.515 269.762 279.583 269.972V272.016H278.267V269.972C276.321 269.776 275.187 268.67 275.005 266.822H276.601C276.713 267.998 277.343 268.614 278.939 268.614C280.423 268.614 281.039 268.068 281.039 267.2C281.039 266.458 280.591 266.108 279.653 265.884L277.735 265.464C276.111 265.086 275.271 264.19 275.271 262.832C275.271 261.404 276.209 260.242 278.267 260.06V258.142H279.583V260.074C281.431 260.298 282.355 261.404 282.495 262.93H280.913C280.773 261.894 280.157 261.418 278.799 261.418C277.497 261.418 276.895 261.838 276.895 262.706C276.895 263.308 277.189 263.756 278.225 263.994L280.087 264.4C281.781 264.792 282.663 265.632 282.663 267.032ZM286.322 270V263H283.774V261.81H284.334C285.02 261.81 285.538 261.67 285.902 261.362C286.224 261.082 286.434 260.69 286.532 260.172L286.56 260.032H288.016V270H286.322ZM294.15 270.196C291.686 270.196 290.384 268.39 290.384 264.988C290.384 261.6 291.7 259.836 294.164 259.836C296.614 259.836 297.916 261.6 297.916 264.988C297.916 268.39 296.6 270.196 294.15 270.196ZM294.164 268.754C295.55 268.754 296.194 267.606 296.194 265.002C296.194 262.426 295.55 261.278 294.15 261.278C292.75 261.278 292.106 262.426 292.106 265.002C292.106 267.606 292.764 268.754 294.164 268.754ZM303.255 270.196C300.791 270.196 299.489 268.39 299.489 264.988C299.489 261.6 300.805 259.836 303.269 259.836C305.719 259.836 307.021 261.6 307.021 264.988C307.021 268.39 305.705 270.196 303.255 270.196ZM303.269 268.754C304.655 268.754 305.299 267.606 305.299 265.002C305.299 262.426 304.655 261.278 303.255 261.278C301.855 261.278 301.211 262.426 301.211 265.002C301.211 267.606 301.869 268.754 303.269 268.754ZM308.819 270V268.236H310.779V270H308.819ZM316.339 270.196C313.875 270.196 312.573 268.39 312.573 264.988C312.573 261.6 313.889 259.836 316.353 259.836C318.803 259.836 320.105 261.6 320.105 264.988C320.105 268.39 318.789 270.196 316.339 270.196ZM316.353 268.754C317.739 268.754 318.383 267.606 318.383 265.002C318.383 262.426 317.739 261.278 316.339 261.278C314.939 261.278 314.295 262.426 314.295 265.002C314.295 267.606 314.953 268.754 316.353 268.754ZM325.445 270.196C322.981 270.196 321.679 268.39 321.679 264.988C321.679 261.6 322.995 259.836 325.459 259.836C327.909 259.836 329.211 261.6 329.211 264.988C329.211 268.39 327.895 270.196 325.445 270.196ZM325.459 268.754C326.845 268.754 327.489 267.606 327.489 265.002C327.489 262.426 326.845 261.278 325.445 261.278C324.045 261.278 323.401 262.426 323.401 265.002C323.401 267.606 324.059 268.754 325.459 268.754Z"
      fill="black"
    />
<rect x="14" y="241" width="48" height="48" rx="8" fill="white" />
<path
      d="M78.774 260.266C76.268 260.266 74.756 259.076 74.63 256.836H76.282C76.38 258.222 77.276 258.88 78.788 258.88C80.216 258.88 80.972 258.306 80.972 257.354C80.972 256.528 80.412 256.136 79.166 255.856L77.542 255.478C75.96 255.114 74.924 254.288 74.924 252.79C74.924 251.152 76.128 249.808 78.55 249.808C80.86 249.808 82.316 251.012 82.456 252.958H80.818C80.692 251.824 79.852 251.194 78.536 251.194C77.304 251.194 76.59 251.754 76.59 252.622C76.59 253.28 77.024 253.7 78.032 253.924L79.908 254.358C81.602 254.75 82.694 255.604 82.694 257.214C82.694 258.978 81.392 260.266 78.774 260.266ZM88.1265 252.594C89.6385 252.594 90.5345 253.532 90.5345 255.072V260H88.8965V255.422C88.8965 254.554 88.4905 254.05 87.6505 254.05C86.7405 254.05 85.9285 254.666 85.9285 256.066V260H84.2905V250.032H85.9285V253.714C86.4185 252.986 87.1745 252.594 88.1265 252.594ZM99.0877 256.43V256.836H93.7537C93.8237 258.18 94.5657 258.908 95.6997 258.908C96.5537 258.908 97.0997 258.502 97.3797 257.732L98.9477 257.872C98.4997 259.398 97.2957 260.21 95.6997 260.21C93.4177 260.21 92.0877 258.572 92.0877 256.36C92.0877 254.204 93.3897 252.594 95.5737 252.594C97.6597 252.594 99.0877 254.036 99.0877 256.43ZM95.6157 253.854C94.5937 253.854 93.8657 254.512 93.7677 255.702H97.4497C97.3097 254.512 96.6517 253.854 95.6157 253.854ZM100.628 260V250.032H102.266V260H100.628ZM104.224 260V250.032H105.862V260H104.224ZM120.263 254.638V260H119.115L118.793 258.768C118.205 259.664 117.183 260.224 115.797 260.224C113.165 260.224 111.163 258.25 111.163 255.002C111.163 251.838 113.053 249.822 115.895 249.822C118.261 249.822 119.815 251.04 120.137 253.042L118.485 253.154C118.247 251.922 117.281 251.292 115.979 251.292C113.977 251.292 112.871 252.762 112.871 255.016C112.871 257.27 113.991 258.796 115.923 258.796C117.435 258.796 118.485 257.858 118.737 256.248V256.08H116.035V254.638H120.263ZM128.514 260H126.862C126.792 259.72 126.736 259.44 126.68 259.16C126.19 259.79 125.35 260.196 124.314 260.196C122.816 260.196 121.85 259.37 121.85 258.04C121.85 256.878 122.578 256.094 124.174 255.828L126.428 255.45C126.498 255.436 126.568 255.422 126.624 255.394V254.764C126.624 254.12 126.148 253.812 125.196 253.812C124.286 253.812 123.838 254.12 123.74 254.932L122.2 254.918C122.34 253.336 123.334 252.594 125.238 252.594C127.184 252.594 128.22 253.406 128.22 255.086V258.334C128.22 258.922 128.29 259.342 128.514 260ZM124.72 258.964C125.756 258.964 126.624 258.278 126.624 257.298V256.542L124.622 256.892C123.824 257.032 123.46 257.41 123.46 257.956C123.46 258.586 123.936 258.964 124.72 258.964ZM132.904 260.224C131 260.224 129.922 259.37 129.754 257.788L131.28 257.746C131.392 258.6 131.938 259.02 132.96 259.02C133.912 259.02 134.472 258.67 134.472 258.054C134.472 257.578 134.136 257.312 133.436 257.172L131.994 256.878C130.58 256.584 129.936 255.898 129.936 254.834C129.936 253.476 130.972 252.594 132.75 252.594C134.444 252.594 135.606 253.406 135.788 254.89L134.262 254.932C134.136 254.19 133.604 253.798 132.722 253.798C131.938 253.798 131.448 254.106 131.448 254.666C131.448 255.086 131.728 255.352 132.414 255.506L133.898 255.814C135.368 256.136 136.012 256.794 136.012 257.872C136.012 259.356 134.822 260.224 132.904 260.224ZM144.919 260.266C142.413 260.266 140.901 259.076 140.775 256.836H142.427C142.525 258.222 143.421 258.88 144.933 258.88C146.361 258.88 147.117 258.306 147.117 257.354C147.117 256.528 146.557 256.136 145.311 255.856L143.687 255.478C142.105 255.114 141.069 254.288 141.069 252.79C141.069 251.152 142.273 249.808 144.695 249.808C147.005 249.808 148.461 251.012 148.601 252.958H146.963C146.837 251.824 145.997 251.194 144.681 251.194C143.449 251.194 142.735 251.754 142.735 252.622C142.735 253.28 143.169 253.7 144.177 253.924L146.053 254.358C147.747 254.75 148.839 255.604 148.839 257.214C148.839 258.978 147.537 260.266 144.919 260.266ZM152.507 253.952V257.97C152.507 258.488 152.689 258.67 153.193 258.67H153.991V260H152.689C151.401 260 150.869 259.468 150.869 258.18V253.966L149.833 254.008V252.776L150.869 252.818V250.55H152.507V252.818L153.991 252.776V254.008L152.507 253.952ZM161.532 260H159.88C159.81 259.72 159.754 259.44 159.698 259.16C159.208 259.79 158.368 260.196 157.332 260.196C155.834 260.196 154.868 259.37 154.868 258.04C154.868 256.878 155.596 256.094 157.192 255.828L159.446 255.45C159.516 255.436 159.586 255.422 159.642 255.394V254.764C159.642 254.12 159.166 253.812 158.214 253.812C157.304 253.812 156.856 254.12 156.758 254.932L155.218 254.918C155.358 253.336 156.352 252.594 158.256 252.594C160.202 252.594 161.238 253.406 161.238 255.086V258.334C161.238 258.922 161.308 259.342 161.532 260ZM157.738 258.964C158.774 258.964 159.642 258.278 159.642 257.298V256.542L157.64 256.892C156.842 257.032 156.478 257.41 156.478 257.956C156.478 258.586 156.954 258.964 157.738 258.964ZM165.249 253.952V257.97C165.249 258.488 165.431 258.67 165.935 258.67H166.733V260H165.431C164.143 260 163.611 259.468 163.611 258.18V253.966L162.575 254.008V252.776L163.611 252.818V250.55H165.249V252.818L166.733 252.776V254.008L165.249 253.952ZM168.058 251.628V250.032H169.696V251.628H168.058ZM168.058 260V252.776H169.696V260H168.058ZM174.832 260.21C172.718 260.21 171.248 258.628 171.248 256.402C171.248 254.148 172.732 252.594 174.86 252.594C176.96 252.594 178.43 254.134 178.43 256.374C178.43 258.6 176.946 260.21 174.832 260.21ZM174.832 258.894C176.092 258.894 176.834 257.886 176.834 256.374C176.834 254.862 176.092 253.91 174.832 253.91C173.6 253.91 172.858 254.89 172.858 256.402C172.858 257.914 173.614 258.894 174.832 258.894ZM183.802 252.594C185.314 252.594 186.21 253.532 186.21 255.072V260H184.572V255.422C184.572 254.554 184.166 254.05 183.326 254.05C182.416 254.05 181.604 254.666 181.604 256.066V260H179.966V252.776H181.534L181.562 253.784C182.052 253.014 182.822 252.594 183.802 252.594Z"
      fill="black"
    />
<path
      d="M82.162 281L81.112 278.074H76.884L75.806 281H74.42L78.284 271.032H79.754L83.604 281H82.162ZM77.304 276.94H80.706L79.348 273.16L79.026 272.124L78.69 273.16L77.304 276.94ZM88.6275 273.622C90.4615 273.622 91.7355 275.036 91.7355 277.22C91.7355 279.46 90.5315 281.154 88.5715 281.154C87.6475 281.154 86.8915 280.734 86.4295 280.118V283.856H85.1415V273.776H86.2615V274.938C86.6815 274.14 87.5635 273.622 88.6275 273.622ZM88.4455 280.048C89.6915 280.048 90.4475 278.9 90.4475 277.22C90.4475 275.568 89.6915 274.728 88.4455 274.728C87.2415 274.728 86.3595 275.596 86.3595 277.304C86.3595 279.012 87.2415 280.048 88.4455 280.048ZM97.0357 273.622C98.8697 273.622 100.144 275.036 100.144 277.22C100.144 279.46 98.9397 281.154 96.9797 281.154C96.0557 281.154 95.2997 280.734 94.8377 280.118V283.856H93.5497V273.776H94.6697V274.938C95.0897 274.14 95.9717 273.622 97.0357 273.622ZM96.8537 280.048C98.0997 280.048 98.8557 278.9 98.8557 277.22C98.8557 275.568 98.0997 274.728 96.8537 274.728C95.6497 274.728 94.7677 275.596 94.7677 277.304C94.7677 279.012 95.6497 280.048 96.8537 280.048ZM105.514 273.58C105.612 273.58 105.696 273.58 105.78 273.594V274.854C105.626 274.84 105.486 274.84 105.318 274.84C104.366 274.84 103.302 275.582 103.246 277.052V281H101.958V273.776H103.162V275.232C103.624 274.224 104.38 273.58 105.514 273.58ZM110.164 281.182C108.092 281.182 106.692 279.656 106.692 277.388C106.692 275.064 108.134 273.594 110.206 273.594C112.222 273.594 113.65 275.036 113.65 277.332C113.65 279.6 112.194 281.182 110.164 281.182ZM110.164 280.104C111.564 280.104 112.362 278.97 112.362 277.332C112.362 275.694 111.564 274.672 110.164 274.672C108.792 274.672 107.98 275.75 107.98 277.388C107.98 279.026 108.806 280.104 110.164 280.104ZM119.812 273.776H121.114L118.468 281H117.194L114.422 273.776H115.808L117.25 277.948L117.852 279.894L118.44 277.948L119.812 273.776ZM128.601 277.22V277.696H123.183C123.225 279.32 124.065 280.118 125.367 280.118C126.431 280.118 127.047 279.586 127.369 278.676L128.545 278.816C128.097 280.314 126.907 281.168 125.325 281.168C123.169 281.168 121.895 279.586 121.895 277.36C121.895 275.148 123.141 273.608 125.297 273.608C127.327 273.608 128.601 274.966 128.601 277.22ZM125.311 274.658C124.163 274.658 123.323 275.358 123.197 276.772H127.397C127.229 275.4 126.487 274.658 125.311 274.658ZM135.309 271.032H136.597V281H135.477V279.852C135.043 280.608 134.203 281.154 133.153 281.154C131.193 281.154 130.003 279.516 130.003 277.276C130.003 275.092 131.291 273.622 133.125 273.622C134.063 273.622 134.847 274.014 135.309 274.644V271.032ZM133.279 280.048C134.483 280.048 135.379 279.012 135.379 277.304C135.379 275.596 134.511 274.728 133.307 274.728C132.061 274.728 131.291 275.624 131.291 277.276C131.291 278.956 132.033 280.048 133.279 280.048Z"
      fill="black"
      fill-opacity="0.5"
    />
<g clip-path="url(#clip1_535_338)">
<path
        d="M38.0016 275.17C37.8128 275.17 37.6336 275.112 37.4832 275.003L36.904 274.579H31.3952L30.8864 270.528L27.2176 267.858C27.1136 267.259 27.0608 266.64 27.0608 266.011C27.0608 259.978 31.968 255.072 38.0016 255.072C44.0336 255.072 48.9408 259.979 48.9408 266.011C48.9408 266.627 48.888 267.248 48.784 267.859L45.1168 270.53L44.6064 274.581H39.0992L38.5168 275.01C38.3744 275.112 38.1888 275.17 38.0016 275.17Z"
        fill="#FFCD00"
      />
<path
        d="M36.9551 275.734C37.2623 275.957 37.6271 276.07 37.9999 276.07C38.3727 276.07 38.7407 275.955 39.0463 275.734L39.3935 275.482H45.3983L45.9599 271.027L49.6015 268.376C49.7599 267.6 49.8399 266.806 49.8399 266.01C49.8399 259.472 44.5359 254.17 37.9999 254.17C31.4639 254.17 26.1599 259.472 26.1599 266.01C26.1599 266.806 26.2367 267.6 26.3999 268.376L30.0415 271.027L30.5999 275.482H36.6095L36.9551 275.734ZM36.7983 273.41H32.4287L31.9903 269.88L28.3903 267.264C28.2847 266.853 28.2303 266.435 28.2303 266.01C28.2303 265.302 28.3791 264.603 28.6703 263.958L35.0399 270.395L28.8479 262.755C29.0911 261.763 29.6303 260.869 30.3951 260.192L35.9471 269.77L31.0255 259.285C31.6607 258.435 32.5471 257.813 33.5615 257.501L36.9551 269.394L34.4751 257.01C35.2335 256.582 36.0783 256.36 36.9471 256.36C37.1311 256.36 37.3135 256.368 37.4943 256.387L37.9999 269.267L38.5039 256.389C38.6879 256.37 38.8687 256.362 39.0559 256.362C39.9183 256.362 40.7711 256.584 41.5263 257.011L39.0463 269.395L42.4431 257.502C43.4527 257.814 44.3391 258.438 44.9759 259.286L40.0575 269.77L45.6095 260.192C46.3695 260.869 46.9103 261.763 47.1567 262.755L40.9647 270.397L47.3343 263.96C47.6223 264.605 47.7679 265.304 47.7679 266.011C47.7679 266.437 47.7167 266.854 47.6079 267.266L44.0143 269.882L43.5727 273.411H39.2031L38.5599 273.88C38.3951 273.997 38.1999 274.066 37.9999 274.066C37.7999 274.066 37.6047 273.998 37.4431 273.88L36.7983 273.41Z"
        fill="#DA291C"
      />
</g>
<mask
      id="mask0_535_338"
      style="mask-type:alpha"
      maskUnits="userSpaceOnUse"
      x="0"
      y="0"
      width="350"
      height="215"
    >
<rect width="350" height="215" rx="14" fill="url(#paint0_linear_535_338)" />
</mask>
<g mask="url(#mask0_535_338)">
<rect
        width="350"
        height="215"
        rx="14"
        fill="url(#paint1_linear_535_338)"
        stroke="url(#paint2_linear_535_338)"
        stroke-width="2"
      />
<path
        d="M293.9 171.541L289.021 194.979H283.095L287.975 171.541H293.9ZM318.473 186.685L321.61 177.851L323.353 186.685H318.473ZM325.096 194.979H330.498L325.793 171.541H320.739C319.693 171.541 318.647 172.262 318.299 173.344L309.585 194.979H315.685L316.905 191.553H324.398L325.096 194.979ZM309.759 187.226C309.759 181.096 301.569 180.736 301.569 178.031C301.743 176.769 302.788 176.048 304.008 176.048C305.925 175.868 308.017 176.228 309.759 177.13L310.805 172.082C309.062 171.361 307.145 171 305.403 171C299.651 171 295.469 174.245 295.469 178.753C295.469 182.178 298.432 183.981 300.523 185.063C302.788 186.144 303.66 186.866 303.486 187.947C303.486 189.57 301.743 190.291 300 190.291C297.909 190.291 295.817 189.75 293.9 188.849L292.855 193.897C294.946 194.798 297.212 195.159 299.303 195.159C305.751 195.339 309.759 192.094 309.759 187.226ZM285.535 171.541L276.124 194.979H269.851L265.145 176.228C265.145 175.327 264.448 174.606 263.751 174.245C262.008 173.344 260.091 172.623 258 172.262L258.174 171.541H268.108C269.502 171.541 270.548 172.623 270.722 173.885L273.162 187.406L279.436 171.541H285.535Z"
        fill="white"
        fill-opacity="0.2"
      />
<rect
        x="279.813"
        y="24.3994"
        width="5.26856"
        height="44.7827"
        transform="rotate(-30 279.813 24.3994)"
        fill="white"
      />
<rect
        x="284.376"
        y="21.7651"
        width="5.26856"
        height="31.6113"
        transform="rotate(60 284.376 21.7651)"
        fill="white"
      />
<rect
        x="281.836"
        y="38.4406"
        width="5.26856"
        height="21.0742"
        transform="rotate(60 281.836 38.4406)"
        fill="white"
      />
<rect
        x="297.548"
        y="44.5792"
        width="5.26856"
        height="31.6113"
        transform="rotate(60 297.548 44.5792)"
        fill="white"
      />
<rect
        x="313.775"
        y="19.9998"
        width="5.26856"
        height="31.6113"
        transform="rotate(60 313.775 19.9998)"
        fill="white"
      />
<rect
        x="320.361"
        y="31.4082"
        width="5.26856"
        height="21.0742"
        transform="rotate(60 320.361 31.4082)"
        fill="white"
      />
<rect
        x="326.947"
        y="42.8142"
        width="5.26856"
        height="31.6113"
        transform="rotate(60 326.947 42.8142)"
        fill="white"
      />
<mask
        id="mask1_535_338"
        style="mask-type:alpha"
        maskUnits="userSpaceOnUse"
        x="35"
        y="65"
        width="55"
        height="50"
      >
<rect x="35" y="65" width="55" height="50" rx="10" fill="black" />
</mask>
<g mask="url(#mask1_535_338)">
<rect x="35" y="65" width="55" height="50" rx="10" fill="black" />
<g filter="url(#filter0_ii_535_338)">
<path
            d="M36 75C36 74.4477 36.4477 74 37 74H54C54.5523 74 55 74.4477 55 75V83C55 83.5523 54.5523 84 54 84H37C36.4477 84 36 83.5523 36 83V75Z"
            fill="url(#paint3_linear_535_338)"
          />
<path
            d="M36.561 71.6911C38.0406 68.2386 41.4355 66 45.1917 66H61C61.5523 66 62 66.4477 62 67V72C62 72.5523 61.5523 73 61 73H37.424C36.7499 73 36.2954 72.3107 36.561 71.6911Z"
            fill="url(#paint4_linear_535_338)"
          />
<path
            d="M36.561 108.309C36.2954 107.689 36.7499 107 37.424 107H61C61.5523 107 62 107.448 62 108V113C62 113.552 61.5523 114 61 114H45.1917C41.4355 114 38.0406 111.761 36.561 108.309Z"
            fill="url(#paint5_linear_535_338)"
          />
<path
            d="M63 67C63 66.4477 63.4477 66 64 66H79.8083C83.5645 66 86.9594 68.2386 88.439 71.6911C88.7046 72.3107 88.2501 73 87.576 73H64C63.4477 73 63 72.5523 63 72V67Z"
            fill="url(#paint6_linear_535_338)"
          />
<path
            d="M63 108C63 107.448 63.4477 107 64 107H87.576C88.2501 107 88.7046 107.689 88.439 108.309C86.9594 111.761 83.5645 114 79.8083 114H64C63.4477 114 63 113.552 63 113V108Z"
            fill="url(#paint7_linear_535_338)"
          />
<path
            d="M70 86C70 85.4477 70.4477 85 71 85H88C88.5523 85 89 85.4477 89 86V94C89 94.5523 88.5523 95 88 95H71C70.4477 95 70 94.5523 70 94V86Z"
            fill="url(#paint8_linear_535_338)"
          />
<path
            d="M70 97C70 96.4477 70.4477 96 71 96H88C88.5523 96 89 96.4477 89 97V105C89 105.552 88.5523 106 88 106H71C70.4477 106 70 105.552 70 105V97Z"
            fill="url(#paint9_linear_535_338)"
          />
<path
            d="M36 86C36 85.4477 36.4477 85 37 85H54C54.5523 85 55 85.4477 55 86V94C55 94.5523 54.5523 95 54 95H37C36.4477 95 36 94.5523 36 94V86Z"
            fill="url(#paint10_linear_535_338)"
          />
<path
            d="M36 97C36 96.4477 36.4477 96 37 96H54C54.5523 96 55 96.4477 55 97V105C55 105.552 54.5523 106 54 106H37C36.4477 106 36 105.552 36 105V97Z"
            fill="url(#paint11_linear_535_338)"
          />
<path
            d="M56 75C56 74.4477 56.4477 74 57 74H88C88.5523 74 89 74.4477 89 75V83C89 83.5523 88.5523 84 88 84H70C69.4477 84 69 84.4477 69 85V105C69 105.552 68.5523 106 68 106H57C56.4477 106 56 105.552 56 105V75Z"
            fill="url(#paint12_linear_535_338)"
          />
</g>
</g>
</g>
</g>
<defs>
<filter
      id="filter0_ii_535_338"
      x="36"
      y="66"
      width="53"
      height="48"
      filterUnits="userSpaceOnUse"
      color-interpolation-filters="sRGB"
    >
<feFlood flood-opacity="0" result="BackgroundImageFix" />
<feBlend
        mode="normal"
        in="SourceGraphic"
        in2="BackgroundImageFix"
        result="shape"
      />
<feColorMatrix
        in="SourceAlpha"
        type="matrix"
        values="0 0 0 0 0 0 0 0 0 0 0 0 0 0 0 0 0 0 127 0"
        result="hardAlpha"
      />
<feOffset dx="-1" dy="-1" />
<feComposite in2="hardAlpha" operator="arithmetic" k2="-1" k3="1" />
<feColorMatrix
        type="matrix"
        values="0 0 0 0 1 0 0 0 0 1 0 0 0 0 1 0 0 0 0.2 0"
      />
<feBlend mode="normal" in2="shape" result="effect1_innerShadow_535_338" />
<feColorMatrix
        in="SourceAlpha"
        type="matrix"
        values="0 0 0 0 0 0 0 0 0 0 0 0 0 0 0 0 0 0 127 0"
        result="hardAlpha"
      />
<feOffset dx="1" dy="1" />
<feComposite in2="hardAlpha" operator="arithmetic" k2="-1" k3="1" />
<feColorMatrix
        type="matrix"
        values="0 0 0 0 0 0 0 0 0 0 0 0 0 0 0 0 0 0 0.1 0"
      />
<feBlend
        mode="normal"
        in2="effect1_innerShadow_535_338"
        result="effect2_innerShadow_535_338"
      />
</filter>
<linearGradient
      id="paint0_linear_535_338"
      x1="-0.170772"
      y1="1.18799"
      x2="350.37"
      y2="212.212"
      gradientUnits="userSpaceOnUse"
    >
<stop stop-color="#00724A" />
<stop offset="1" stop-color="#005A3A" />
</linearGradient>
<linearGradient
      id="paint1_linear_535_338"
      x1="-0.170772"
      y1="1.18799"
      x2="350.37"
      y2="212.212"
      gradientUnits="userSpaceOnUse"
    >
<stop stop-color="#222222" />
<stop offset="1" />
</linearGradient>
<linearGradient
      id="paint2_linear_535_338"
      x1="18"
      y1="-1.25468e-05"
      x2="339.5"
      y2="215"
      gradientUnits="userSpaceOnUse"
    >
<stop stop-color="#444444" />
<stop offset="1" stop-color="#222222" />
</linearGradient>
<linearGradient
      id="paint3_linear_535_338"
      x1="36"
      y1="66"
      x2="89"
      y2="114"
      gradientUnits="userSpaceOnUse"
    >
<stop stop-color="#EEEEEE" />
<stop offset="1" stop-color="#CCCCCC" />
</linearGradient>
<linearGradient
      id="paint4_linear_535_338"
      x1="36"
      y1="66"
      x2="89"
      y2="114"
      gradientUnits="userSpaceOnUse"
    >
<stop stop-color="#EEEEEE" />
<stop offset="1" stop-color="#CCCCCC" />
</linearGradient>
<linearGradient
      id="paint5_linear_535_338"
      x1="36"
      y1="66"
      x2="89"
      y2="114"
      gradientUnits="userSpaceOnUse"
    >
<stop stop-color="#EEEEEE" />
<stop offset="1" stop-color="#CCCCCC" />
</linearGradient>
<linearGradient
      id="paint6_linear_535_338"
      x1="36"
      y1="66"
      x2="89"
      y2="114"
      gradientUnits="userSpaceOnUse"
    >
<stop stop-color="#EEEEEE" />
<stop offset="1" stop-color="#CCCCCC" />
</linearGradient>
<linearGradient
      id="paint7_linear_535_338"
      x1="36"
      y1="66"
      x2="89"
      y2="114"
      gradientUnits="userSpaceOnUse"
    >
<stop stop-color="#EEEEEE" />
<stop offset="1" stop-color="#CCCCCC" />
</linearGradient>
<linearGradient
      id="paint8_linear_535_338"
      x1="36"
      y1="66"
      x2="89"
      y2="114"
      gradientUnits="userSpaceOnUse"
    >
<stop stop-color="#EEEEEE" />
<stop offset="1" stop-color="#CCCCCC" />
</linearGradient>
<linearGradient
      id="paint9_linear_535_338"
      x1="36"
      y1="66"
      x2="89"
      y2="114"
      gradientUnits="userSpaceOnUse"
    >
<stop stop-color="#EEEEEE" />
<stop offset="1" stop-color="#CCCCCC" />
</linearGradient>
<linearGradient
      id="paint10_linear_535_338"
      x1="36"
      y1="66"
      x2="89"
      y2="114"
      gradientUnits="userSpaceOnUse"
    >
<stop stop-color="#EEEEEE" />
<stop offset="1" stop-color="#CCCCCC" />
</linearGradient>
<linearGradient
      id="paint11_linear_535_338"
      x1="36"
      y1="66"
      x2="89"
      y2="114"
      gradientUnits="userSpaceOnUse"
    >
<stop stop-color="#EEEEEE" />
<stop offset="1" stop-color="#CCCCCC" />
</linearGradient>
<linearGradient
      id="paint12_linear_535_338"
      x1="36"
      y1="66"
      x2="89"
      y2="114"
      gradientUnits="userSpaceOnUse"
    >
<stop stop-color="#EEEEEE" />
<stop offset="1" stop-color="#CCCCCC" />
</linearGradient>
<clipPath id="clip0_535_338">
<rect width="350" height="305" fill="white" />
</clipPath>
<clipPath id="clip1_535_338">
<rect width="24" height="22.24" fill="white" transform="translate(26 254)" />
</clipPath>
</defs>
</svg>
