<svg
  width="224"
  height="90"
  viewBox="0 0 224 90"
  fill="none"
  xmlns="http://www.w3.org/2000/svg"
>
<path
    d="M39.0784 39.4925C38.9625 39.0324 38.9915 38.5722 39.0495 38.3134C39.1943 37.5944 39.6868 36.8179 41.1065 36.8179C42.4391 36.8179 43.1924 37.6231 43.1924 38.8598C43.1924 39.2624 43.1924 40.2403 43.1924 40.2403H48.8129V38.6585C48.8129 33.7981 44.3802 33.0216 41.1934 33.0216C37.2242 32.9928 33.9504 34.3158 33.342 37.9682C33.1682 38.9748 33.1392 39.8664 33.4 40.988C34.385 45.5608 42.4102 46.8838 43.569 49.7885C43.8008 50.3349 43.7139 51.0252 43.627 51.4566C43.4532 52.2043 42.9317 52.9808 41.4251 52.9808C40.0055 52.9808 39.1653 52.1756 39.1653 50.9389V48.7819H33.0813V50.5075C33.0813 55.5117 37.0504 57.0072 41.2803 57.0072C45.3653 57.0072 48.697 55.6267 49.2475 51.888C49.5082 49.9611 49.3054 48.6956 49.2185 48.2355C48.2914 43.4901 39.7158 42.1096 39.0784 39.4925ZM112.464 39.55C112.377 39.1186 112.406 38.6297 112.435 38.3996C112.609 37.6806 113.072 36.9041 114.492 36.9041C115.795 36.9041 116.549 37.7094 116.549 38.9173C116.549 39.32 116.549 40.2978 116.549 40.2978H122.111V38.7448C122.111 33.9131 117.765 33.1654 114.608 33.1654C110.638 33.1654 107.394 34.4596 106.785 38.0833C106.64 39.0611 106.582 39.9527 106.843 41.0743C107.799 45.5608 115.737 46.8838 116.896 49.7597C117.099 50.3062 117.041 50.9964 116.925 51.399C116.751 52.1468 116.259 52.8945 114.752 52.8945C113.362 52.8945 112.493 52.0893 112.493 50.8814V48.7244H106.496V50.4212C106.496 55.3679 110.407 56.8634 114.608 56.8634C118.635 56.8634 121.966 55.4829 122.488 51.8017C122.749 49.8748 122.546 48.6381 122.459 48.178C121.561 43.5189 113.101 42.1384 112.464 39.55ZM163.686 51.7442L158.384 33.7118H150.011V55.8856H155.545L155.226 37.278L160.933 55.8856H168.958V33.7118H163.396L163.686 51.7442ZM57.2437 33.7118L53.0717 56.1156H59.1558L62.3137 35.3799L65.3847 56.1156H71.4398L67.2679 33.7118H57.2437ZM91.3143 33.7118L88.4751 51.2265L85.6359 33.7118H76.4229L75.9304 56.1156H81.5799L81.7247 35.3799L85.6069 56.1156H91.3143L95.2255 35.3799L95.3704 56.1156H101.02L100.527 33.7118H91.3143ZM143.753 33.7118H138.046V50.2774C138.046 50.565 138.046 50.8814 137.988 51.1402C137.872 51.6866 137.408 52.7795 135.815 52.7795C134.25 52.7795 133.787 51.7154 133.671 51.1402C133.613 50.9101 133.613 50.565 133.613 50.2774V33.7118H127.906V49.7597C127.906 50.1624 127.935 51.0252 127.964 51.2265C128.369 55.3966 131.672 56.7771 135.815 56.7771C139.958 56.7771 143.29 55.4254 143.695 51.2265C143.724 50.9964 143.782 50.1624 143.753 49.7597V33.7118ZM182.923 43.5476V46.8262H185.24V50.0473C185.24 50.3349 185.24 50.6513 185.183 50.9101C185.096 51.5141 184.516 52.5494 182.865 52.5494C181.242 52.5494 180.663 51.5141 180.576 50.9101C180.547 50.6513 180.518 50.3349 180.518 50.0473V39.8089C180.518 39.435 180.547 39.0611 180.634 38.7448C180.75 38.1983 181.242 37.1342 182.865 37.1342C184.603 37.1342 185.009 38.2558 185.125 38.7448C185.183 39.0611 185.183 39.6075 185.183 39.6075V40.8442H190.861V40.0965C190.861 40.0965 190.89 39.32 190.832 38.601C190.397 34.402 186.921 33.0791 182.923 33.0791C178.925 33.0791 175.506 34.4308 175.013 38.601C174.956 38.9748 174.898 39.6651 174.898 40.0965V49.5009C174.898 49.9035 174.898 50.2199 174.985 50.9676C175.361 55.0515 178.925 56.4895 182.923 56.4895C186.95 56.4895 190.484 55.0515 190.861 50.9676C190.919 50.2199 190.948 49.9035 190.948 49.5009V43.5476H182.923Z"
    fill="black"
  />
</svg>
