<svg
  width="224"
  height="90"
  viewBox="0 0 224 90"
  fill="none"
  xmlns="http://www.w3.org/2000/svg"
>
<g clip-path="url(#clip0_1812_47)">
<path
      d="M65.5808 56.499V32H81.7897V35.3951H69.7474V42.4265H74.4828C74.9371 42.4267 75.3848 42.537 75.7879 42.7483C76.191 42.9595 76.5377 43.2654 76.7989 43.6402L78.268 45.7581H69.7474V53.1088H81.7897V56.5022L65.5808 56.499Z"
      fill="black"
    />
<path
      d="M107.252 56.499V32H123.459V35.3951H111.418V42.4265H116.147C116.602 42.4267 117.049 42.537 117.452 42.7483C117.855 42.9595 118.202 43.2654 118.463 43.6402L119.932 45.7581H111.418V53.1088H123.459V56.5022L107.252 56.499Z"
      fill="black"
    />
<path
      d="M92.4201 56.499V35.3951H85.2683V32H103.743V35.3951H96.5866V56.499H92.4201Z"
      fill="black"
    />
<path
      d="M167.901 32H172.588C172.831 31.9999 173.068 32.077 173.264 32.2203C173.461 32.3636 173.609 32.5658 173.686 32.7983L181.512 56.499H177.131L170.853 36.6659H169.697L163.347 56.499H158.936L166.797 32.7967C166.874 32.5636 167.022 32.3611 167.221 32.218C167.419 32.075 167.657 31.9987 167.901 32Z"
      fill="black"
    />
<path
      d="M134.766 55.7023L126.913 32H131.322L137.676 51.8332H138.833L145.11 32H149.485L141.655 55.7008C141.578 55.9332 141.431 56.1354 141.234 56.2787C141.037 56.422 140.8 56.4991 140.557 56.499H135.87C135.627 56.4999 135.389 56.4234 135.191 56.2804C134.993 56.1373 134.844 55.9352 134.766 55.7023Z"
      fill="black"
    />
<path d="M152.325 56.499V32H155.813V56.499H152.325Z" fill="black" />
<path
      d="M57.8679 32V50.5298C57.8679 50.5817 57.8476 50.6314 57.8111 50.668C57.7748 50.7048 57.7254 50.7253 57.674 50.7253C57.641 50.7237 57.6088 50.7139 57.5806 50.6965C57.5523 50.6791 57.5289 50.6548 57.5123 50.6259L47.369 32.5832C47.2673 32.4053 47.1208 32.2577 46.9443 32.1553C46.7677 32.0529 46.5675 31.9993 46.3638 32H42V54.166H52.8027L51.3271 51.9358C51.0688 51.5453 50.7189 51.2252 50.3084 51.0038C49.8979 50.7825 49.4395 50.6667 48.9739 50.6667H46.1666V37.9415C46.1666 37.9242 46.17 37.907 46.1766 37.891C46.1831 37.875 46.1928 37.8604 46.2049 37.8482C46.2171 37.8359 46.2315 37.8262 46.2474 37.8196C46.2633 37.8129 46.2803 37.8095 46.2975 37.8095C46.3205 37.81 46.3429 37.8163 46.3627 37.828C46.3825 37.8397 46.399 37.8563 46.4106 37.8763L56.6654 55.9174C56.7672 56.0944 56.9134 56.2413 57.0892 56.3434C57.2651 56.4455 57.4646 56.4991 57.6676 56.499H62.0313V32H57.8679Z"
      fill="black"
    />
<path
      d="M55.1127 59.9999H45.8454C45.3155 59.9999 44.7963 59.8499 44.3469 59.5671C43.8974 59.2843 43.5358 58.8799 43.3031 58.4001L42.3818 56.4989H51.6492C52.179 56.499 52.6982 56.6488 53.1477 56.9318C53.5971 57.2146 53.9588 57.6189 54.1914 58.0987L55.1127 59.9999Z"
      fill="black"
    />
<path
      d="M174.849 59.9999H165.589L166.778 57.2059C166.867 56.9963 167.016 56.8175 167.204 56.6919C167.393 56.5663 167.614 56.4991 167.841 56.4989H172.648C172.877 56.499 173.102 56.568 173.292 56.6971C173.483 56.8263 173.632 57.0096 173.719 57.2239L174.849 59.9999Z"
      fill="black"
    />
</g>
<defs>
<clipPath id="clip0_1812_47">
<rect width="140" height="28" fill="white" transform="translate(42 32)" />
</clipPath>
</defs>
</svg>
