<svg
  width="224"
  height="90"
  viewBox="0 0 224 90"
  fill="none"
  xmlns="http://www.w3.org/2000/svg"
>
<path
    d="M134.664 34.5771C134.624 34.5741 134.592 34.5426 134.589 34.5028C134.46 32.7384 135.066 30.9472 136.408 29.5995C137.733 28.2684 139.533 27.6436 141.291 27.7737C141.331 27.7767 141.362 27.8083 141.365 27.848C141.495 29.6124 140.889 31.4036 139.547 32.7513C138.204 34.099 136.421 34.7076 134.664 34.5771Z"
    fill="black"
  />
<path
    d="M58.3752 53.3332C60.4962 55.5057 63.579 56.5906 67.6201 56.5906C68.8375 56.5906 69.9822 56.466 71.0541 56.2165C72.1505 55.9669 73.1498 55.5675 74.0517 55.0182C74.9398 54.4772 75.7098 53.7791 76.3615 52.9236L76.7206 56.1241C76.7218 56.1344 76.7305 56.1423 76.7409 56.1423H79.3677C79.3789 56.1423 79.388 56.1331 79.388 56.1217V42.6313C79.388 42.62 79.3789 42.6109 79.3677 42.6109H67.0363C67.0252 42.6109 67.016 42.62 67.016 42.6313V45.6582C67.016 45.6696 67.0252 45.6788 67.0363 45.6788H75.8449V46.1068C75.8449 47.7735 75.5413 49.1525 74.9354 50.2448C74.3539 51.3366 73.4575 52.1561 72.2452 52.7025C71.0326 53.224 69.4911 53.4854 67.6201 53.4854C65.774 53.4854 64.1963 53.162 62.8864 52.5161C61.5774 51.8456 60.5711 50.7903 59.8675 49.349C59.1883 47.9078 58.848 46.0301 58.848 43.715V42.9303C58.848 41.2128 59.0546 39.7327 59.4672 38.4897C59.8798 37.2465 60.4743 36.2279 61.2501 35.4332C62.0259 34.6385 62.9837 34.0547 64.124 33.682C65.2647 33.3091 66.5638 33.1224 68.0213 33.1224C69.0902 33.1224 70.0979 33.2344 71.0449 33.4582C71.9911 33.657 72.8158 34.0049 73.5186 34.5014C74.2453 34.9977 74.8026 35.6429 75.1902 36.4369C75.5776 37.2057 75.772 38.1368 75.772 39.2306C75.772 39.2419 75.781 39.2511 75.7923 39.2511H79.3311C79.3423 39.2511 79.3515 39.2419 79.3515 39.2306C79.3515 37.6588 79.0714 36.2978 78.5104 35.1485C77.9739 33.9995 77.1935 33.0502 76.1693 32.3008C75.1698 31.5268 73.9755 30.9527 72.5871 30.5785C71.1986 30.2042 69.6524 30.0172 67.9484 30.0172C65.222 30.0172 62.908 30.5159 61.0073 31.5143C59.1062 32.4879 57.6681 33.9611 56.6934 35.933C55.7187 37.9048 55.2319 40.3621 55.2319 43.304C55.2319 47.816 56.2784 51.1604 58.3752 53.3332Z"
    fill="black"
    stroke="black"
    stroke-width="0.0274919"
    stroke-linejoin="round"
  />
<path
    d="M83.1781 61.6252C83.1781 61.6351 83.1852 61.6436 83.195 61.6454C83.3205 61.6667 83.4454 61.6888 83.5703 61.711C84.2322 61.8282 84.8886 61.9446 85.5698 61.9446C86.5937 61.9446 87.4845 61.7573 88.2418 61.3821C89.5073 60.7966 90.4694 59.7222 91.1684 58.5231C91.6066 57.6253 92.0089 56.6392 92.374 55.5672L98.8679 36.4712C98.8701 36.465 98.8691 36.4581 98.8652 36.4527C98.8614 36.4473 98.8553 36.4442 98.8486 36.4442H95.6017C95.5928 36.4442 95.5851 36.4499 95.5823 36.4584L92.3353 46.623C92.2381 46.9961 92.1043 47.4325 91.9341 47.9304C91.7882 48.4038 91.63 48.9151 91.4596 49.4633C91.3137 49.9863 91.1678 50.4976 91.0218 50.9956C90.8777 51.4877 90.7572 51.9312 90.6605 52.3263H90.4732C90.3276 51.7813 90.1343 51.1507 89.8932 50.4347C89.6743 49.7121 89.4432 49.0145 89.1999 48.3416C88.9811 47.6441 88.7864 47.0586 88.6161 46.5849L84.7852 36.4573C84.7823 36.4494 84.7747 36.4442 84.7663 36.4442H81.4098C81.403 36.4442 81.3968 36.4475 81.3929 36.453C81.3892 36.4585 81.3883 36.4656 81.3907 36.4719L88.8307 56.1216L88.8189 56.1581C88.6584 56.6511 88.591 56.8586 88.5066 57.0136C88.4441 57.1286 88.3725 57.2141 88.2454 57.366C88.1965 57.4245 88.1395 57.4928 88.0715 57.5764C87.5864 58.1723 87.066 58.5936 86.5101 58.8411C85.9532 59.0891 85.3845 59.213 84.8038 59.213H83.1984C83.1872 59.213 83.1781 59.2222 83.1781 59.2336V61.6252Z"
    fill="black"
  />
<path
    d="M92.374 55.5672C92.0089 56.6392 91.6066 57.6253 91.1684 58.5231C90.4694 59.7222 89.5073 60.7966 88.2418 61.3821C87.4845 61.7573 86.5937 61.9446 85.5698 61.9446C84.8886 61.9446 84.2322 61.8282 83.5703 61.711C83.4454 61.6888 83.3205 61.6667 83.195 61.6454C83.1852 61.6436 83.1781 61.6351 83.1781 61.6252V59.2336C83.1781 59.2222 83.1872 59.213 83.1984 59.213H84.8038C85.3845 59.213 85.9532 59.0891 86.5101 58.8411C87.066 58.5936 87.5864 58.1723 88.0715 57.5764C88.1395 57.4928 88.1965 57.4245 88.2454 57.366C88.3725 57.2141 88.4441 57.1286 88.5066 57.0136C88.591 56.8586 88.6584 56.6511 88.8189 56.1581L88.8307 56.1216L81.3907 36.4719C81.3883 36.4656 81.3892 36.4585 81.3929 36.453C81.3968 36.4475 81.403 36.4442 81.4098 36.4442H84.7663C84.7747 36.4442 84.7823 36.4494 84.7852 36.4573L88.6161 46.5849C88.7864 47.0586 88.9811 47.6441 89.1999 48.3416C89.4432 49.0145 89.6743 49.7121 89.8932 50.4347C90.1343 51.1507 90.3276 51.7813 90.4732 52.3263H90.6605C90.7572 51.9312 90.8777 51.4877 91.0218 50.9956C91.1678 50.4976 91.3137 49.9863 91.4596 49.4633C91.63 48.9151 91.7882 48.4038 91.9341 47.9304C92.1043 47.4325 92.2381 46.9961 92.3353 46.623L95.5823 36.4584C95.5851 36.4499 95.5928 36.4442 95.6017 36.4442H98.8486C98.8553 36.4442 98.8614 36.4473 98.8652 36.4527C98.8691 36.4581 98.8701 36.465 98.8679 36.4712L92.374 55.5672ZM92.374 55.5672L92.3547 55.5607"
    stroke="black"
    stroke-width="0.0274919"
    stroke-linejoin="round"
  />
<path
    d="M100.721 56.1221C100.721 56.1334 100.73 56.1426 100.741 56.1426H103.952C103.963 56.1426 103.972 56.1334 103.972 56.1221V44.5749C103.972 43.4068 104.203 42.4013 104.663 41.5579C105.147 40.714 105.789 40.069 106.589 39.6225C107.388 39.1757 108.236 38.9525 109.133 38.9525C109.739 38.9525 110.285 39.0146 110.769 39.1387C111.277 39.2626 111.7 39.4731 112.038 39.7695C112.399 40.0658 112.678 40.4741 112.871 40.9945C113.089 41.5143 113.198 42.1847 113.198 43.0053V56.1221C113.198 56.1334 113.207 56.1426 113.219 56.1426H116.429C116.44 56.1426 116.45 56.1334 116.45 56.1221V42.5569C116.45 40.9357 116.182 39.6488 115.644 38.6979C115.132 37.7476 114.411 37.0593 113.483 36.6339C112.579 36.2089 111.518 35.9967 110.3 35.9967C109.398 35.9967 108.545 36.1215 107.74 36.3713C106.96 36.5962 106.24 36.9585 105.581 37.4583C104.949 37.9562 104.378 38.6028 103.868 39.3974H103.642L103.352 36.4636C103.351 36.4531 103.342 36.4451 103.332 36.4451H100.741C100.73 36.4451 100.721 36.4543 100.721 36.4656V56.1221Z"
    fill="black"
    stroke="black"
    stroke-width="0.0274919"
    stroke-linejoin="round"
  />
<path
    d="M130.534 35.3215L130.53 35.3209L130.518 35.3194L130.472 35.3135C130.432 35.3084 130.373 35.3011 130.3 35.2924C130.155 35.2749 129.953 35.2517 129.727 35.2284C129.274 35.1819 128.722 35.1353 128.327 35.1353C126.619 35.1353 125.146 35.4147 123.948 35.961C122.764 36.5073 121.881 37.254 121.288 38.2014C120.721 39.1486 120.445 40.2425 120.445 41.4816C120.445 42.5346 120.682 43.4949 121.143 44.3617C121.622 45.2014 122.28 45.8868 123.091 46.4292C122.203 46.6325 121.454 47.0294 120.819 47.6197C120.198 48.2216 119.894 48.9582 119.894 49.8275C119.894 50.4692 120.065 51.0709 120.408 51.6191C120.744 52.1291 121.207 52.5371 121.807 52.8297C120.994 53.1769 120.284 53.7044 119.675 54.4122C119.081 55.1342 118.791 56.0433 118.791 57.1368C118.791 58.1235 119.028 58.9914 119.49 59.7127C119.964 60.4335 120.584 60.9809 121.375 61.3546C122.16 61.7521 123.01 61.952 123.937 61.9547C123.94 61.9626 123.948 61.9681 123.956 61.9681H131.857C133.107 61.9681 134.2 61.7016 135.135 61.1816C136.096 60.6883 136.834 59.9946 137.348 59.1276C137.888 58.2738 138.165 57.3132 138.165 56.2463C138.165 54.7534 137.704 53.5387 136.794 52.591C135.884 51.6163 134.711 51.1359 133.288 51.1359H125.426C124.774 51.1359 124.24 50.9774 123.824 50.688C123.409 50.3727 123.202 49.9667 123.202 49.4819C123.202 48.9164 123.41 48.5251 123.822 48.2768C124.238 48.0005 124.773 47.8677 125.426 47.8677H128.445C130.179 47.8677 131.626 47.5883 132.785 47.0419C133.943 46.4955 134.799 45.7489 135.366 44.8013C135.959 43.8276 136.248 42.7209 136.248 41.4816C136.248 40.6153 136.09 39.8019 135.774 39.055C135.471 38.3081 135.023 37.6413 134.405 37.0414C133.595 36.3212 132.626 35.8909 131.862 35.6413C131.48 35.5164 131.148 35.4365 130.912 35.3878C130.794 35.3634 130.699 35.3468 130.635 35.3364C130.602 35.3311 130.577 35.3274 130.56 35.325L130.541 35.3223L130.536 35.3217L130.534 35.3215ZM133.358 59.0454C132.888 59.2962 132.379 59.4154 131.818 59.4154H124.875C124.092 59.4154 123.441 59.1647 122.907 58.6765C122.374 58.1891 122.1 57.5436 122.1 56.7247C122.1 55.9595 122.373 55.3136 122.907 54.7993C123.442 54.2583 124.093 53.981 124.875 53.981H132.304C133.034 53.981 133.645 54.2315 134.127 54.7191C134.608 55.2063 134.856 55.8784 134.856 56.7115C134.856 57.2125 134.726 57.6606 134.452 58.0825C134.179 58.5045 133.814 58.8211 133.358 59.0454ZM131.844 44.3236C131.088 45.0098 129.926 45.355 128.366 45.355C127.318 45.355 126.442 45.1958 125.763 44.8785C125.071 44.5478 124.562 44.0985 124.223 43.5047C123.884 42.9101 123.714 42.2359 123.714 41.4683C123.714 40.277 124.093 39.3394 124.849 38.6529C125.631 37.9664 126.807 37.6214 128.366 37.6214C129.926 37.6214 131.088 37.9665 131.844 38.6528C132.6 39.3393 132.979 40.2505 132.979 41.4683C132.979 42.6864 132.6 43.6372 131.844 44.3236Z"
    fill="black"
    stroke="black"
    stroke-width="0.0274919"
    stroke-linejoin="round"
  />
<path
    d="M143.337 55.5046C144.654 56.2292 146.264 56.591 148.164 56.591C149.479 56.591 150.648 56.4165 151.672 56.0667C152.696 55.7173 153.562 55.2301 154.27 54.6053C154.977 53.9805 155.514 53.2305 155.88 52.3558C156.246 51.4565 156.441 50.4821 156.465 49.4334C156.466 49.4279 156.464 49.4227 156.46 49.4186C156.456 49.4148 156.451 49.4125 156.445 49.4125H153.308C153.297 49.4125 153.288 49.4212 153.287 49.4322C153.263 50.0778 153.142 50.6734 152.924 51.2191C152.706 51.7643 152.379 52.2351 151.944 52.6316C151.533 53.0277 151.012 53.3382 150.382 53.5616C149.777 53.7601 149.062 53.8594 148.236 53.8594C147.023 53.8594 146.017 53.6357 145.218 53.1896C144.42 52.7189 143.815 51.9877 143.403 50.9949C143.017 49.9809 142.798 48.6949 142.749 47.1365H156.518C156.529 47.1365 156.538 47.1273 156.538 47.116V45.5464C156.538 43.427 156.222 41.6676 155.588 40.269C154.979 38.8455 154.064 37.7832 152.843 37.0832C151.623 36.3585 150.112 35.9967 148.309 35.9967C146.337 35.9967 144.692 36.3708 143.374 37.1204C142.057 37.8452 141.057 38.9699 140.374 40.4931C139.716 41.9915 139.387 43.9254 139.387 46.2939C139.387 48.6375 139.716 50.5712 140.374 52.0944C141.056 53.6175 142.044 54.7548 143.337 55.5046ZM151.76 40.067C152.22 40.5377 152.572 41.1456 152.814 41.8906C153.055 42.6307 153.176 43.5433 153.178 44.6291H142.822C142.921 43.2704 143.175 42.1594 143.585 41.2951C143.997 40.4267 144.59 39.7823 145.364 39.361C146.139 38.9395 147.084 38.7282 148.2 38.7282C148.952 38.7282 149.618 38.84 150.199 39.0632C150.804 39.2614 151.325 39.5962 151.76 40.067Z"
    fill="black"
    stroke="black"
    stroke-width="0.0274919"
    stroke-linejoin="round"
  />
<path
    d="M159.572 56.1221C159.572 56.1334 159.581 56.1426 159.593 56.1426H162.803C162.814 56.1426 162.823 56.1334 162.823 56.1221V45.1727C162.823 44.3522 162.908 43.5816 163.078 42.8608C163.272 42.1407 163.563 41.5203 163.95 40.9996C164.338 40.4791 164.821 40.0826 165.402 39.81C166.007 39.5127 166.721 39.3635 167.546 39.3635H168.75C168.761 39.3635 168.77 39.3544 168.77 39.3431V36.3161C168.77 36.3084 168.766 36.3014 168.759 36.2979C168.61 36.2217 168.377 36.1591 168.061 36.1092C167.767 36.0341 167.437 35.9967 167.072 35.9967C166.217 35.9967 165.496 36.1842 164.908 36.5603C164.322 36.9107 163.858 37.3739 163.515 37.9497C163.177 38.4951 162.91 39.0773 162.715 39.6963H162.493L162.203 36.4638C162.202 36.4532 162.193 36.4451 162.183 36.4451H159.593C159.581 36.4451 159.572 36.4543 159.572 36.4656V56.1221Z"
    fill="black"
    stroke="black"
    stroke-width="0.0274919"
    stroke-linejoin="round"
  />
</svg>
