<svg
  width="224"
  height="90"
  viewBox="0 0 224 90"
  fill="none"
  xmlns="http://www.w3.org/2000/svg"
>
<path
    fill-rule="evenodd"
    clip-rule="evenodd"
    d="M84.4729 35.8094V53.5274H79.8471V49.3007C79.8471 48.423 79.8471 47.5944 79.8717 46.8076C79.8962 46.0207 79.9134 45.2856 79.9477 44.5947C79.8119 44.934 79.6613 45.3053 79.496 45.7085C79.3307 46.1117 79.1547 46.5215 78.9681 46.9379C78.7815 47.3461 78.5974 47.7559 78.4157 48.1673L77.9246 49.2418L75.6117 54.1594L73.3037 49.2418C73.154 48.9221 72.9845 48.5632 72.8127 48.1648C72.6408 47.7665 72.4419 47.3608 72.2603 46.9354C72.0785 46.5101 71.8993 46.1191 71.7324 45.7061C71.5654 45.293 71.4131 44.9266 71.2806 44.5947C71.315 45.2847 71.3404 46.0224 71.3567 46.8076C71.3714 47.592 71.3812 48.423 71.3812 49.2983V53.5274H66.7334V35.8119H71.2315L73.4044 40.5451C73.6745 41.118 73.925 41.6712 74.1631 42.2047C74.4012 42.7383 74.6075 43.2325 74.7941 43.6947C74.9807 44.157 75.1649 44.5774 75.2975 44.9487C75.4158 45.2553 75.5175 45.568 75.6019 45.8855C75.8376 45.1577 76.1077 44.4439 76.4122 43.744C76.8001 42.8243 77.2715 41.7588 77.8264 40.5475L79.9993 35.8143L84.4729 35.8094ZM92.9609 35.8094V45.9618C92.9609 47.0584 93.1843 47.9181 93.6311 48.541C94.078 49.1639 94.781 49.4762 95.7403 49.4778C96.6995 49.4778 97.3944 49.1655 97.8248 48.541C98.2553 47.9165 98.4705 47.0567 98.4705 45.9618V35.8119H103.474V45.9618C103.506 47.1857 103.306 48.4045 102.885 49.5541C102.548 50.4713 101.999 51.2956 101.283 51.9598C100.567 52.6239 99.7043 53.1088 98.7652 53.375C97.7597 53.669 96.7165 53.8141 95.669 53.8053C94.6256 53.8151 93.5863 53.6701 92.5852 53.375C91.6761 53.1087 90.8403 52.6367 90.1422 51.9956C89.4257 51.3102 88.8763 50.4689 88.5364 49.5368C88.124 48.3854 87.9276 47.1675 87.957 45.9446V35.8119L92.9609 35.8094ZM113.153 35.8094C114.426 35.7971 115.695 35.9424 116.932 36.2422C117.988 36.4939 118.97 36.9927 119.797 37.6978C120.623 38.4334 121.251 39.3628 121.629 40.4024C122.089 41.7462 122.299 43.1628 122.25 44.5824C122.284 46.0116 122.078 47.4364 121.639 48.7967C121.281 49.8592 120.649 50.8083 119.807 51.5481C118.94 52.2832 117.915 52.8067 116.812 53.0774C115.611 53.3717 114.38 53.5285 113.143 53.5447H106.961V35.8119L113.153 35.8094ZM146.79 35.8094V49.2516H154.623V53.5324H141.838V35.8119L146.79 35.8094ZM139.226 35.8094V39.9894H130.085V42.4359H135.614V46.5937H130.085V53.5274H125.199V35.8119L139.226 35.8094ZM167.69 35.8094L174.101 53.525H168.796L167.837 50.4245H162.53L161.572 53.5373H156.32L162.73 35.8217L167.69 35.8094ZM184.239 35.8094C185.188 35.7973 186.134 35.9005 187.057 36.1168C187.848 36.2987 188.592 36.6428 189.243 37.1273C189.86 37.6091 190.343 38.2416 190.645 38.9641C190.994 39.8262 191.161 40.7512 191.136 41.681C191.165 42.6614 190.983 43.6367 190.603 44.5406C190.273 45.2864 189.758 45.9354 189.108 46.4265C188.422 46.9316 187.638 47.2883 186.807 47.4739C185.848 47.6882 184.866 47.7906 183.883 47.7788H181.428V53.5274H176.618V35.8119L184.239 35.8094ZM113.141 39.9894H111.913V49.3279H112.962C113.618 49.3385 114.273 49.2557 114.906 49.082C115.411 48.9433 115.869 48.6725 116.235 48.2976C116.601 47.8893 116.854 47.3927 116.971 46.8567C117.143 46.132 117.226 45.3887 117.217 44.6439C117.227 43.938 117.155 43.2334 117.003 42.5441C116.895 42.0088 116.661 41.5072 116.321 41.0811C115.981 40.6969 115.544 40.4122 115.056 40.2574C114.434 40.0694 113.786 39.9831 113.136 40.0017L113.141 39.9894ZM164.997 41.8187C164.93 42.1064 164.85 42.4187 164.751 42.7555L164.447 43.8939C164.327 44.3144 164.202 44.8037 164.042 45.3692L163.713 46.5347H166.65L166.32 45.3692C166.165 44.7963 166.033 44.2996 165.915 43.8792C165.797 43.4587 165.699 43.0776 165.61 42.7407C165.523 42.4039 165.437 42.099 165.365 41.8236C165.294 41.5482 165.233 41.2556 165.169 40.9434C165.123 41.2352 165.065 41.5269 164.997 41.8187ZM184.084 39.8197H181.416V43.7857H184.006C184.818 43.7857 185.396 43.6161 185.724 43.2767C185.907 43.0707 186.046 42.83 186.134 42.5689C186.222 42.3079 186.257 42.0319 186.236 41.7573C186.257 41.2398 186.082 40.7334 185.744 40.341C185.433 39.9886 184.88 39.8123 184.084 39.8123V39.8197Z"
    fill="black"
  />
<path
    fill-rule="evenodd"
    clip-rule="evenodd"
    d="M45.8921 31C45.575 30.999 45.2609 31.0611 44.9679 31.1826C44.675 31.3042 44.409 31.4828 44.1857 31.7081L32.7071 43.2005C32.2543 43.6546 32 44.2701 32 44.9118C32 45.5536 32.2543 46.169 32.7071 46.6231L44.1832 58.118C44.6366 58.5714 45.2513 58.8261 45.8921 58.8261C46.5329 58.8261 47.1476 58.5714 47.601 58.118L59.0795 46.6231C59.5323 46.169 59.7866 45.5536 59.7866 44.9118C59.7866 44.2701 59.5323 43.6546 59.0795 43.2005L47.6034 31.7081C47.3792 31.4826 47.1124 31.3038 46.8187 31.1823C46.5249 31.0607 46.2099 30.9988 45.8921 31ZM45.8975 33.0923C45.9874 33.0927 46.0737 33.1279 46.1383 33.1906L57.6095 44.6707C57.6417 44.7029 57.6671 44.7413 57.6844 44.7835C57.7017 44.8257 57.7104 44.8709 57.7101 44.9166C57.7106 44.9622 57.7019 45.0075 57.6846 45.0497C57.6673 45.092 57.6417 45.1303 57.6095 45.1625L46.1334 56.645C46.1012 56.6773 46.063 56.7029 46.0208 56.7203C45.9786 56.7376 45.9334 56.7463 45.8878 56.7458C45.8423 56.7461 45.7971 56.7373 45.755 56.72C45.7129 56.7027 45.6745 56.6773 45.6424 56.645L34.1761 45.1527C34.1441 45.1203 34.1189 45.0819 34.102 45.0397C34.0852 44.9974 34.0769 44.9522 34.0779 44.9067C34.0771 44.8613 34.0854 44.8161 34.1022 44.7739C34.1191 44.7317 34.1442 44.6933 34.1761 44.6608L45.6522 33.1783C45.7197 33.1188 45.8076 33.0879 45.8975 33.0923ZM45.8975 33.0923L45.8928 33.0923H45.8977L45.8975 33.0923ZM45.8952 32.1358C45.7247 32.1345 45.5557 32.1672 45.3979 32.2319C45.2394 32.2969 45.0955 32.393 44.9745 32.5145L33.5156 43.9872C33.3948 44.1075 33.299 44.2507 33.2336 44.4083C33.1682 44.5659 33.1345 44.7348 33.1345 44.9055C33.1345 45.0762 33.1682 45.2452 33.2336 45.4027C33.299 45.5604 33.3948 45.7034 33.5156 45.8239L44.9696 57.3088C45.2131 57.552 45.5428 57.6885 45.8866 57.6885C46.2304 57.6885 46.5602 57.552 46.8037 57.3088L58.2724 45.8387C58.5151 45.5948 58.6515 45.2646 58.6515 44.9203C58.6515 44.576 58.5151 44.2457 58.2724 44.0019L46.8184 32.5145C46.6971 32.3929 46.5526 32.2968 46.3937 32.2318C46.2354 32.1671 46.066 32.1344 45.8952 32.1358ZM45.8952 32.1358L45.8977 32.1358H45.8928L45.8952 32.1358ZM45.6734 41.9835L46.9771 37.4249C46.9965 37.3877 47.0083 37.3469 47.0119 37.305C47.0156 37.2632 47.0109 37.221 46.9982 37.1809C46.9856 37.1409 46.9652 37.1037 46.9382 37.0715C46.9112 37.0393 46.8781 37.0128 46.8409 36.9934C46.8036 36.9741 46.7629 36.9622 46.7211 36.9586C46.6793 36.955 46.6372 36.9596 46.5972 36.9723C46.5572 36.985 46.5201 37.0054 46.4879 37.0324C46.4558 37.0595 46.4293 37.0926 46.41 37.1299L39.928 44.9365H44.8386L42.8866 51.8212C42.846 51.8949 42.8361 51.9818 42.8591 52.0628C42.8821 52.1439 42.9361 52.2125 43.0094 52.2539C43.0454 52.2742 43.0851 52.2872 43.1262 52.292C43.1673 52.2969 43.2089 52.2935 43.2487 52.282C43.2884 52.2705 43.3256 52.2513 43.3578 52.2254C43.3901 52.1995 43.4169 52.1673 43.4366 52.131L51.846 41.9835H45.6734Z"
    fill="black"
  />
</svg>
