<svg
  width="224"
  height="90"
  viewBox="0 0 224 90"
  fill="none"
  xmlns="http://www.w3.org/2000/svg"
>
<path
    d="M88.9216 49.4773L92.0368 47.7179C92.7636 49.5807 94.2175 50.8226 96.8135 50.8226C99.2538 50.8226 100.137 49.7877 100.137 48.701C100.137 47.2005 98.7347 46.6313 95.6713 45.7516C92.5041 44.8719 89.4407 43.5264 89.4407 39.6973C89.4407 35.868 92.7118 33.643 96.2423 33.643C99.6173 33.643 102.265 35.3506 103.615 38.1966L100.188 40.1629C99.4615 38.6105 98.3192 37.5757 96.2423 37.5757C94.529 37.5757 93.5425 38.4554 93.5425 39.5938C93.5425 40.8357 94.3213 41.5084 97.4885 42.4398C100.76 43.4747 104.238 44.5097 104.238 48.6493C104.238 52.4268 101.123 54.7553 96.7097 54.7553C92.6598 54.7553 89.9599 52.9442 88.7657 50.1499C88.5581 49.8912 88.6619 49.5807 88.9216 49.4773Z"
    fill="black"
  />
<path
    d="M121.476 46.8904C121.476 51.2889 118.205 54.6524 114.259 54.6524C112.078 54.6524 110.521 53.8762 109.482 52.4791V60.0858H105.692V40.06C105.692 39.7495 105.9 39.5425 106.211 39.5425H109.119L109.534 41.3019C110.573 39.9565 112.182 39.1286 114.311 39.1286C118.205 39.1286 121.476 42.4921 121.476 46.8904ZM117.634 46.8904C117.634 44.4584 115.868 42.8025 113.532 42.8025C111.196 42.8025 109.43 44.4584 109.43 46.8904C109.43 49.3225 111.196 50.9784 113.532 50.9784C115.92 50.9784 117.634 49.3225 117.634 46.8904Z"
    fill="black"
  />
<path
    d="M122.358 46.7869C122.358 42.3885 125.837 38.9733 130.147 38.9733C134.508 38.9733 137.987 42.3885 137.987 46.7869C137.987 51.1853 134.508 54.6006 130.147 54.6006C125.837 54.5488 122.358 51.1853 122.358 46.7869ZM134.248 46.7869C134.248 44.4066 132.483 42.699 130.147 42.699C127.862 42.699 126.045 44.4066 126.045 46.7869C126.045 49.1672 127.81 50.8749 130.147 50.8749C132.483 50.8749 134.248 49.1672 134.248 46.7869Z"
    fill="black"
  />
<path
    d="M144.373 49.27V43.164L146.606 42.8018C146.71 41.6633 146.917 40.5249 147.229 39.49H144.373V35.3503L140.946 36.3853C140.739 36.437 140.583 36.6439 140.583 36.9026V39.49H138.506C138.195 39.49 137.987 39.6969 137.987 40.0074V43.1122H140.531V49.2183C140.531 53.2027 142.348 54.7551 147.696 54.1859V50.7189C145.516 50.9258 144.373 50.8741 144.373 49.27Z"
    fill="black"
  />
<path
    d="M148.89 43.9919C148.89 37.9378 153.667 33.2806 159.638 33.2806C165.609 33.2806 170.386 37.9378 170.386 43.9919C170.386 49.9945 165.609 54.7035 159.638 54.7035C153.667 54.7035 148.89 49.9945 148.89 43.9919ZM166.284 43.9919C166.284 40.0594 163.376 37.3168 159.586 37.3168C155.848 37.3168 152.888 40.0594 152.888 43.9919C152.888 47.8729 155.796 50.6155 159.586 50.6155C163.376 50.6155 166.284 47.8729 166.284 43.9919Z"
    fill="black"
  />
<path
    d="M185.807 45.2346V54.2902H182.016V45.7002C182.016 43.6822 180.822 42.6472 179.108 42.6472C177.24 42.6472 175.838 43.734 175.838 46.3213V54.2902H171.995V40.06C171.995 39.7495 172.203 39.5425 172.515 39.5425H175.423L175.838 41.1984C176.72 39.853 178.278 39.1286 180.251 39.1286C183.366 39.1286 185.807 41.3019 185.807 45.2346Z"
    fill="black"
  />
<path
    d="M59.0666 22C46.8651 22 37 31.573 37 43.9921C37 56.4629 46.8651 65.9842 59.0666 65.9842C71.268 65.9842 81.1331 56.4112 81.1331 43.9921C81.185 31.573 71.268 22 59.0666 22ZM59.0666 54.6001C53.1995 54.6001 48.4746 49.9947 48.4746 44.0438C48.4746 38.0413 53.1995 33.4876 59.0666 33.4876C64.9336 33.4359 69.7104 38.0413 69.7104 43.9921C69.7104 49.9947 64.9336 54.6001 59.0666 54.6001Z"
    fill="black"
  />
<path
    d="M59.0666 22C46.8651 22 37 31.573 37 43.9921C37 56.4629 46.8651 65.9842 59.0666 65.9842C71.268 65.9842 81.1331 56.4112 81.1331 43.9921C81.185 31.573 71.268 22 59.0666 22ZM59.0666 54.6001C53.1995 54.6001 48.4746 49.9947 48.4746 44.0438C48.4746 38.0413 53.1995 33.4876 59.0666 33.4876C64.9336 33.4359 69.7104 38.0413 69.7104 43.9921C69.7104 49.9947 64.9336 54.6001 59.0666 54.6001Z"
    fill="black"
  />
</svg>
