<svg
  width="224"
  height="90"
  viewBox="0 0 224 90"
  fill="none"
  xmlns="http://www.w3.org/2000/svg"
>
<path
    fill-rule="evenodd"
    clip-rule="evenodd"
    d="M67.4122 23C61.448 23 55.7809 25.357 51.5644 29.59C47.3477 33.8233 45 39.5124 45 45.5C45 51.4871 47.3477 57.1772 51.5644 61.4101C55.7804 65.6433 61.4485 68 67.4122 68C73.3764 68 79.0433 65.6433 83.26 61.4101C87.4766 57.177 89.8242 51.4876 89.8242 45.5C89.8242 39.5123 87.4771 33.8233 83.26 29.59C79.0433 25.3565 73.3765 23 67.4122 23ZM67.4122 40.986C69.8954 40.986 71.9087 43.0068 71.9087 45.5C71.9087 47.9933 69.8954 50.0143 67.4122 50.0143C64.9286 50.0143 62.9156 47.9933 62.9156 45.5C62.9156 43.0068 64.9286 40.986 67.4122 40.986ZM63.7897 31.8994C62.5911 32.2204 61.4419 32.6996 60.3697 33.3263C60.4909 32.7477 60.5569 32.1187 60.5625 31.4366C60.593 27.7205 63.7414 24.7383 67.4118 24.7388C69.3572 24.7388 71.1895 25.5911 72.4648 27.0583C72.9879 26.7611 73.5376 26.5131 74.1062 26.3178C73.8746 26.0162 73.6239 25.7307 73.3559 25.4637C74.6912 25.8619 75.9822 26.3944 77.2104 27.0526C75.0198 27.0354 72.8502 27.8477 71.2411 29.463C68.3357 32.1502 65.3344 31.4098 62.6557 28.9433C62.3583 29.5005 62.1612 30.105 62.0736 30.732C62.6424 31.1837 63.215 31.5751 63.7897 31.8994ZM55.2733 38.4545C54.6509 39.5325 54.1749 40.6871 53.8573 41.8915C53.5361 41.3958 53.1397 40.9042 52.6635 40.4179C50.068 37.7685 50.1938 33.425 52.7887 30.8198C54.1646 29.439 56.0608 28.7412 57.9959 28.8731C58.1556 28.2914 58.37 27.7262 58.6349 27.1843C58.2588 27.1353 57.8807 27.1115 57.503 27.1129C58.725 26.4481 60.0098 25.909 61.339 25.5032C59.7804 27.0432 58.8244 29.1515 58.8244 31.4418C58.6619 35.4108 56.0235 37.0116 52.3869 37.1691C52.5694 37.7741 52.8561 38.3422 53.2356 38.8474C53.9568 38.7628 54.638 38.633 55.2733 38.4545ZM53.8646 49.1366C54.1845 50.3397 54.6626 51.4942 55.2864 52.5701C54.71 52.448 54.0837 52.3823 53.4036 52.3766C49.7023 52.3459 46.7317 49.1852 46.732 45.5005C46.732 43.5473 47.5809 41.7078 49.0426 40.4277C48.7463 39.9025 48.4993 39.3506 48.3049 38.7798C48.0048 39.0122 47.7207 39.2633 47.4552 39.532C47.8519 38.1919 48.3816 36.8964 49.037 35.6638C49.0199 37.8629 49.8294 40.0404 51.438 41.656C54.1146 44.573 53.3769 47.5859 50.9203 50.2751C51.4751 50.5738 52.0775 50.7716 52.7017 50.8595C53.1519 50.2886 53.5415 49.7138 53.8646 49.1366ZM60.3948 57.6881C61.4678 58.3126 62.6181 58.7899 63.8171 59.1086C63.3235 59.4315 62.8343 59.8286 62.3501 60.3066C59.7109 62.9126 55.3845 62.7861 52.7892 60.1809C51.4138 58.7996 50.719 56.8961 50.8504 54.9534C50.2709 54.7927 49.7079 54.5776 49.1681 54.3118C49.1193 54.6893 49.0957 55.0694 49.0968 55.4481C48.4351 54.2213 47.8979 52.9313 47.4934 51.597C49.0269 53.1617 51.1281 54.1215 53.4088 54.1215C57.3625 54.2845 58.9567 56.9337 59.1137 60.584C59.7166 60.4011 60.2822 60.1133 60.7853 59.7325C60.7014 59.0088 60.5728 58.3252 60.3948 57.6881ZM71.0351 59.1012C72.2332 58.7806 73.3821 58.3011 74.4539 57.6751C74.3329 58.2533 74.2675 58.8819 74.2619 59.5636C74.2312 63.2795 71.083 66.2617 67.4127 66.2612C65.4673 66.2612 63.6348 65.4091 62.3594 63.9416C61.8366 64.2391 61.2866 64.4871 60.7182 64.6824C60.9496 64.9836 61.2002 65.2683 61.4677 65.5354C60.133 65.1372 58.8427 64.6051 57.6147 63.9474C59.8055 63.9648 61.974 63.1519 63.5831 61.5369C66.4886 58.8497 69.49 59.5905 72.1684 62.0568C72.4661 61.4997 72.6631 60.895 72.7507 60.2682C72.1821 59.8163 71.6096 59.4256 71.0351 59.1012ZM79.5555 52.5441C80.1763 51.4673 80.6509 50.3134 80.968 49.1101C81.2891 49.6051 81.685 50.0964 82.1608 50.5821C84.7564 53.2315 84.6307 57.5753 82.0353 60.1804C80.6598 61.5611 78.7633 62.259 76.8285 62.1269C76.6686 62.7086 76.4544 63.2739 76.1895 63.8158C76.5652 63.8647 76.9437 63.8884 77.3211 63.8873C76.0993 64.5522 74.8146 65.0911 73.4853 65.497C75.0439 63.9571 75.9999 61.8485 75.9999 59.5585C76.1623 55.5892 78.8009 53.9884 82.4373 53.8309C82.255 53.2259 81.968 52.6581 81.5887 52.1529C80.8692 52.2367 80.1892 52.3662 79.5555 52.5441ZM80.96 41.8629C80.641 40.6601 80.1638 39.5065 79.5404 38.4305C80.1164 38.5516 80.7419 38.6177 81.4206 38.6236C85.122 38.6542 88.0926 41.8148 88.0922 45.4995C88.0922 47.4527 87.2433 49.2922 85.7817 50.5726C86.0778 51.0975 86.3251 51.6494 86.5192 52.2204C86.8195 51.988 87.1036 51.737 87.3691 51.468C86.9725 52.808 86.4426 54.1035 85.7874 55.3365C85.8046 53.1373 84.9949 50.9596 83.3861 49.3441C80.7094 46.4272 81.4473 43.4141 83.9041 40.7249C83.349 40.4262 82.7468 40.2284 82.1226 40.1405C81.6729 40.7112 81.283 41.2857 80.96 41.8629ZM74.4292 33.3099C73.3559 32.6867 72.206 32.21 71.0074 31.8914C71.5008 31.5685 71.9902 31.1712 72.4743 30.6933C75.1134 28.0877 79.4399 28.2139 82.0348 30.8193C83.4102 32.2006 84.1053 34.1042 83.9737 36.0467C84.5534 36.2073 85.1164 36.4223 85.6562 36.6882C85.7051 36.3107 85.7287 35.9308 85.7272 35.5519C86.3891 36.7786 86.9263 38.069 87.3307 39.403C85.7972 37.8382 83.6963 36.8787 81.4154 36.8787C77.4619 36.7155 75.8674 34.0665 75.7104 30.4159C75.1077 30.5991 74.542 30.8867 74.039 31.2678C74.1226 31.9905 74.2518 32.6733 74.4292 33.3099ZM76.2012 36.6764C78.5393 39.0245 79.8408 42.1798 79.8408 45.5C79.8408 48.82 78.5404 51.9776 76.2028 54.3251C73.8648 56.673 70.7191 57.9777 67.4122 57.9777C64.1057 57.9777 60.9594 56.6725 58.6215 54.3251C56.2834 51.9779 54.9833 48.8196 54.9833 45.5C54.9833 42.1803 56.2846 39.024 58.6232 36.6764C60.9618 34.3301 64.1052 33.0225 67.4122 33.0225C70.7194 33.0225 73.8627 34.3294 76.2012 36.6764Z"
    fill="black"
  />
<path
    d="M107.842 32.0003H107.554L95.625 57.7321H98.7353L101.713 51.2258H107.842H113.972L116.95 57.7321H120.06L108.131 32.0003H107.842ZM107.842 48.3954H103.008L107.842 37.8333L112.676 48.3954H107.842ZM133.239 54.1909C132.206 54.8348 131.209 55.1567 130.248 55.1567C128.646 55.1567 127.756 54.2984 127.756 52.0089V41.7373H133.701V39.442L127.756 39.4779V34.5058H125.014V39.4779H122.309V41.7373H125.014V52.5099C125.014 56.2298 127.044 57.8753 129.785 57.8753C131.28 57.8396 132.705 57.3387 134.022 56.4445L133.239 54.1909ZM146.036 38.8104C140.482 38.8104 136.53 42.6732 136.53 48.2892C136.53 53.9402 140.482 57.8396 146.036 57.8396C151.59 57.8396 155.542 53.9402 155.542 48.2892C155.542 42.6732 151.59 38.8104 146.036 38.8104ZM146.036 41.3497C149.952 41.3497 152.765 44.2114 152.765 48.3247C152.765 52.4739 149.952 55.3354 146.036 55.3354C142.12 55.3354 139.307 52.4739 139.307 48.3247C139.307 44.2114 142.12 41.3497 146.036 41.3497ZM161.29 32.6934V57.7321H171.029C176.654 57.7321 180 55.1925 180 50.936C180 47.5023 177.9 45.1411 174.304 44.605C177.224 43.9967 178.897 41.8862 178.897 38.9534C178.897 35.0188 175.87 32.6934 170.851 32.6934H161.29ZM164.138 35.4479H170.708C174.055 35.4479 176.013 36.8786 176.013 39.4181C176.013 42.0294 174.054 43.496 170.708 43.496H164.138V35.4479ZM164.138 46.2145H170.708C174.767 46.2145 177.116 47.8239 177.116 50.5426C177.116 53.4041 174.766 55.0138 170.708 55.0138H164.138V46.2145Z"
    fill="black"
  />
</svg>
