<svg
  width="224"
  height="90"
  viewBox="0 0 224 90"
  fill="none"
  xmlns="http://www.w3.org/2000/svg"
>
<mask
    id="mask0_340_183"
    style="mask-type:luminance"
    maskUnits="userSpaceOnUse"
    x="42"
    y="31"
    width="140"
    height="29"
  >
<path d="M182 31H42V60H182V31Z" fill="white" />
</mask>
<g mask="url(#mask0_340_183)">
<path
      d="M42.1073 47.7324C42.1508 47.702 42.2211 47.6514 42.3283 47.5773C41.9331 47.4828 42.0034 47.2299 42.0905 46.9703C42.1039 46.9298 42.1039 46.8792 42.0939 46.8354C41.9766 46.3228 41.9833 45.8103 42.0336 45.2876C42.0805 44.7649 42.0671 44.2389 42.124 43.7162C42.1776 43.2239 42.2881 42.7349 42.3786 42.246C42.4455 41.8818 42.4857 41.5041 42.5996 41.1534C42.8374 40.4284 43.0886 39.7068 43.3934 39.0088C43.6714 38.3782 44.0163 37.7746 44.358 37.1743C44.5757 36.7899 44.8302 36.4257 45.0948 36.075C45.2824 35.8255 45.5202 35.6131 45.7345 35.3838C45.969 35.1309 46.1934 34.8645 46.4412 34.6284C46.5685 34.5104 46.7125 34.4227 47.0475 34.1597C47.8111 33.5595 48.3068 33.229 48.7221 33.0334C49.1675 32.8243 49.5862 32.5512 50.035 32.3489C50.4403 32.1668 50.8656 32.0386 51.2843 31.8936C52.2556 31.5531 53.2704 31.4317 54.2752 31.2766C54.7441 31.2024 55.223 31.1923 55.6986 31.1956C56.4589 31.199 57.2259 31.1788 57.9762 31.2766C58.8771 31.3912 59.7747 31.5733 60.6522 31.806C61.4159 32.0049 62.1695 32.2713 62.8963 32.5849C63.4455 32.821 63.9613 33.1447 64.4604 33.4785C65.0364 33.8663 65.0331 34.3586 64.7585 34.9623C64.6546 35.1882 64.4034 35.3399 64.2259 35.5355C64.0853 35.6906 63.8876 35.7884 63.8608 36.0481C63.8475 36.156 63.7202 36.2807 63.613 36.3414C63.1408 36.6011 62.8293 37.0226 62.4742 37.4138C62.2331 37.6835 61.9015 37.8353 61.4862 37.7847C61.0843 37.7341 60.8431 37.5116 60.6053 37.235C59.8585 36.3583 59.0479 35.5456 58.0599 34.9623C57.0049 34.3384 56.0872 33.6741 54.8379 33.5999C54.2216 33.5628 53.6154 33.6067 53.0192 33.7146C52.4967 33.809 52.1852 34.0282 51.6795 34.217C51.5656 34.2609 51.301 34.4126 51.2106 34.5138C51.1905 34.534 51.1671 34.5643 51.1436 34.5677C50.6546 34.6014 50.3967 35.0196 50.0484 35.2792C49.8073 35.458 49.5896 35.6873 49.4087 35.93C49.1709 36.2538 48.7891 36.6146 48.5848 36.9619C48.4374 37.2148 48.29 37.4677 48.1695 37.7375C46.5317 41.4434 46.8934 45.8339 48.4709 49.5061C48.7991 50.2749 49.1977 51.0269 49.6465 51.7283C50.4403 52.9659 51.9709 54.3518 53.2369 55.0903C54.0508 55.5657 54.9082 55.8692 55.8226 56.0109C56.3082 56.0884 56.8173 56.0311 57.2996 56.1289C58.0097 56.2705 58.2475 56.0547 58.9475 56.1019C59.0881 56.112 59.2355 56.0176 59.3795 55.9873C60.0125 55.8591 60.5451 55.6197 60.8867 54.9857C61.0843 54.6148 61.0742 54.2371 61.0876 53.8696C61.1211 52.9119 61.1412 51.8935 61.1479 50.9359C61.1513 50.4166 61.168 48.2719 61.0608 47.7661C60.9704 47.3277 59.5939 47.4491 59.624 46.2352C59.5537 45.8507 60.2001 45.2876 60.7762 45.2876C60.8833 45.2876 61.0006 45.2505 61.1111 45.2471C61.6336 45.237 62.1561 45.2235 62.6786 45.2269C63.6666 45.2336 64.6546 45.2303 65.6393 45.264C66.1183 45.2809 66.5972 45.7968 66.6173 46.306C66.6408 47.004 66.6173 47.7054 66.6274 48.4068C66.6341 48.8283 66.6943 49.2498 66.6977 49.6713C66.701 50.1873 66.6608 50.7066 66.6575 51.2225C66.6575 51.6507 66.6809 52.079 66.6843 52.5073C66.6843 52.686 66.6542 52.8681 66.6508 53.0468C66.6441 53.8089 66.6441 54.5743 66.6475 55.3364C66.6475 55.9299 66.6642 56.52 66.6575 57.1135C66.6508 57.7711 66.6441 58.4286 66.6073 59.0862C66.5771 59.6021 66.1149 59.9393 65.646 59.7471C65.2776 59.5988 64.9393 59.3593 64.601 59.1368C63.8776 58.6613 63.1776 58.1488 62.4408 57.6969C62.0388 57.4507 61.5867 57.5283 61.1915 57.761C60.7259 58.0341 60.2905 58.3612 59.835 58.6546C59.6843 58.7524 59.5135 58.8232 59.3494 58.8974C59.0513 59.0289 58.7498 59.1503 58.4518 59.2818C58.2809 59.356 58.1202 59.4605 57.9427 59.5077C57.524 59.6156 57.102 59.7134 56.6766 59.7842C56.1943 59.8652 55.7087 59.9427 55.223 59.9629C54.7006 59.9866 54.1714 59.9427 53.6489 59.9225C53.3742 59.9124 53.0996 59.909 52.8283 59.8719C52.4465 59.818 52.0647 59.7404 51.6862 59.6561C50.524 59.4032 49.4355 58.9479 48.424 58.3207C47.7675 57.9161 47.1379 57.444 46.5618 56.9281C45.4699 55.9468 44.5656 54.8036 43.8522 53.4919C43.3197 52.514 42.891 51.499 42.6063 50.4199C42.4388 49.7927 42.2881 49.1588 42.1575 48.5248C42.1039 48.2786 42.124 48.0156 42.1073 47.7391V47.7324Z"
      fill="black"
    />
<path
      d="M73.6474 59.0188C72.8872 59.1806 72.1235 58.9547 71.3565 59.0761C71.1723 59.1064 69.9699 59.1604 69.558 59.0828C68.3154 58.8434 67.8565 57.9397 68.4829 56.8303C68.8178 56.2368 68.9919 55.2521 68.9886 54.5777C68.9852 51.0201 68.9819 46.9905 68.9886 43.4329C68.9886 42.6506 68.8044 41.9593 68.3489 41.3051C67.6422 40.2868 67.9872 39.1605 69.1293 38.7525C69.8962 38.4793 70.6967 38.2635 71.4972 38.1253C72.8235 37.896 73.7379 38.6344 73.8518 39.9833C73.8953 40.4722 73.8785 41.4636 73.8886 41.4636C73.8886 45.4124 73.8919 49.8365 73.8886 53.7853C73.8886 54.8205 74.0058 56.1525 74.612 57.0562C75.1144 57.8048 74.5718 58.8198 73.6474 59.0188ZM68.5632 33.7719C68.513 32.4703 69.9867 30.9258 71.3398 31.0068C72.9006 31.1012 74.0427 32.1196 74.0661 33.6505C74.0929 35.2522 72.9776 36.4021 71.3934 36.4122C69.7489 36.419 68.6235 35.3197 68.5632 33.7753V33.7719Z"
      fill="black"
    />
<path
      d="M93.8369 40.9208C93.5087 41.3692 93.147 41.8042 92.8791 42.2898C91.5594 44.6806 90.0422 48.4102 89.0374 50.946C88.0929 53.3301 87.1451 55.7108 86.214 58.0982C85.9494 58.7794 85.5475 59.1806 84.7637 59.1874C83.9867 59.1941 83.5513 58.8131 83.27 58.1454C82.0274 55.2049 80.7848 52.2678 79.5355 49.3308C78.8288 47.6649 77.6432 44.802 76.8929 43.1564C76.5546 42.4146 76.1159 41.7098 75.6637 41.0287C74.8532 39.7945 75.3288 38.7154 76.7991 38.594C77.4824 38.5367 78.1724 38.5839 78.859 38.5839V38.6008C79.5456 38.6008 80.2355 38.5603 80.9188 38.6109C81.9972 38.6884 82.6403 39.5517 82.1982 40.5363C81.7058 41.639 81.9671 42.5764 82.3791 43.5678C83.136 45.3921 84.3585 48.4169 85.1355 50.2311C85.2929 50.5953 85.5743 50.9966 85.9092 51.1787C86.5054 51.5058 87.1618 51.1787 87.5102 50.4604C87.8283 49.8096 88.1063 49.1419 88.3877 48.4742C88.8867 47.294 89.8647 44.9066 90.3369 43.7128C90.7255 42.7316 90.7657 41.757 90.3872 40.7319C89.935 39.5045 90.5546 38.648 91.8341 38.5771C92.1288 38.5603 92.4235 38.5704 92.7183 38.567C93.2743 38.5603 93.7834 38.6918 94.0312 39.2448C94.2924 39.8248 94.2255 40.3981 93.8403 40.9241L93.8369 40.9208Z"
      fill="black"
    />
<path
      d="M96.9819 49.85C97.3135 51.4349 97.9901 52.8512 99.1891 53.9775C100.994 55.6669 103.871 56.0109 106.025 54.7733C106.491 54.5069 106.923 54.1764 107.398 53.9269C108.078 53.5627 108.537 53.8089 108.554 54.5777C108.564 55.033 108.493 55.5489 108.286 55.9468C107.08 58.2432 105.265 59.6493 102.605 59.9056C99.7049 60.1821 97.2197 59.383 95.2269 57.2349C94.6642 56.628 94.1819 55.8996 93.8302 55.151C93.003 53.3941 92.5274 51.5327 92.6479 49.7253C92.6278 47.5806 92.792 45.6349 93.6594 43.8207C94.0345 43.035 94.3762 42.2021 94.9054 41.5277C95.9503 40.1957 97.2331 39.1234 98.9446 38.739C99.8623 38.5333 100.783 38.3074 101.714 38.2264C104.18 38.0174 106.182 38.9818 107.69 40.9241C108.637 42.1448 109.177 43.5645 109.324 45.119C109.458 46.5387 108.627 47.6177 107.217 47.6548C106.018 47.6852 104.816 47.466 103.613 47.4188C102.006 47.3547 100.395 47.2805 98.7905 47.3378C97.7221 47.3783 96.7642 48.7878 96.9853 49.85H96.9819ZM98.9747 46.0902C99.5106 46.1104 100.05 46.0935 100.586 46.0935V46.0733C101.055 46.0969 101.524 46.1542 101.992 46.1374C102.314 46.1239 102.706 46.107 102.934 45.9249C104.066 45.028 104.404 44.5828 104.039 43.0688C103.828 42.1954 103.382 41.4468 102.679 40.8702C101.647 40.0305 100.073 39.9361 99.1188 40.6881C98.1709 41.4333 97.4843 42.3741 97.1527 43.5543C96.791 44.8357 97.6518 46.043 98.9747 46.0935V46.0902Z"
      fill="black"
    />
<path
      d="M124.061 59.9562C123.887 59.9191 123.733 59.8516 123.585 59.8618C122.359 59.9697 121.16 59.8011 119.958 59.5515C118.873 59.3256 117.868 58.8973 116.92 58.3511C115.607 57.5957 114.492 56.5773 113.537 55.3735C112.821 54.4698 112.255 53.4784 111.776 52.4229C111.431 51.6642 111.166 50.8785 110.948 50.0759C110.814 49.587 110.674 49.0947 110.607 48.5956C110.51 47.8841 110.449 47.1625 110.426 46.4442C110.402 45.7226 110.429 45.0009 110.459 44.2793C110.486 43.669 110.516 43.0519 110.597 42.4483C110.654 42.0099 110.794 41.5816 110.905 41.1534C111.069 40.5059 111.287 39.8787 111.548 39.265C111.846 38.5501 112.258 37.9061 112.596 37.2215C112.888 36.6348 113.323 36.1829 113.695 35.6838C114.097 35.1443 114.619 34.6992 115.098 34.2271C115.282 34.045 115.507 33.9034 115.704 33.7348C115.832 33.6235 115.919 33.4616 116.056 33.3773C116.589 33.0435 117.128 32.7164 117.68 32.4129C117.878 32.305 118.116 32.2713 118.334 32.1937C118.474 32.1431 118.618 32.0892 118.752 32.0184C119.328 31.698 119.968 31.5463 120.594 31.408C121.261 31.263 121.954 31.2158 122.637 31.1787C123.404 31.1383 124.178 31.1113 124.942 31.1619C125.575 31.2057 126.204 31.3406 126.824 31.4856C127.42 31.6238 128.003 31.8329 128.596 32.0015C129.366 32.2207 130.073 32.5883 130.756 33.003C131.124 33.2256 131.496 33.4515 131.821 33.7314C132.163 34.0281 132.119 34.5609 131.804 34.8847C131.456 35.2455 131.131 35.6299 130.786 35.9941C130.448 36.3515 130.096 36.6955 129.751 37.0394C129.557 37.235 129.359 37.4306 129.155 37.6161C128.757 37.9735 128.261 37.9128 127.892 37.5014C127.35 36.8911 126.817 36.2672 126.228 35.7108C125.796 35.3062 125.28 34.797 124.791 34.4631C124.061 33.9641 123.22 33.7685 122.373 33.6775C121.85 33.6201 121.308 33.7348 120.775 33.7887C120.578 33.809 120.38 33.8595 120.189 33.9202C119.971 33.9877 119.566 34.0686 119.358 34.1597C119.154 34.2473 118.953 34.3485 118.766 34.4631C117.895 34.9993 117.171 36.4088 116.753 37.3025C116.163 38.5737 115.473 40.3036 115.39 41.7098C115.353 42.364 115.373 43.0215 115.41 43.6757C115.453 44.4311 115.487 45.1931 115.627 45.9316C115.781 46.7308 115.862 47.3075 116.069 48.0999C116.498 49.7387 117.741 51.5293 118.846 52.7534C119.285 53.239 120.018 53.6301 120.547 54.0213C120.923 54.2978 121.331 54.544 121.757 54.7159C122.302 54.9385 122.875 55.1341 123.455 55.2352C124.148 55.3566 124.861 55.3937 125.568 55.4106C126.03 55.4207 126.499 55.3566 126.955 55.269C127.454 55.1745 128.144 54.6283 128.633 54.4833C129.135 54.3349 129.611 54.1292 130.063 53.8392C130.806 53.3368 131.751 52.2611 131.958 51.9879C132.102 51.7991 132.491 51.6507 132.658 51.7923C133.569 52.5612 131.902 55.1105 131.486 55.6669C131.215 56.0311 130.97 56.4188 130.702 56.7864C130.378 57.2349 129.966 57.589 129.537 57.9295C129.158 58.2297 128.767 58.4961 128.321 58.6916C127.929 58.8636 127.557 59.0794 127.169 59.2581C127.069 59.3054 126.938 59.2885 126.821 59.2986C126.787 59.2986 126.75 59.2885 126.724 59.3054C126.194 59.5852 125.628 59.7033 125.039 59.7505C124.868 59.764 124.694 59.7741 124.526 59.8112C124.352 59.8483 124.181 59.9191 124.061 59.9562Z"
      fill="black"
    />
<path
      d="M151.103 58.6006C149.81 60.0607 147.489 60.3338 145.811 59.221C145.62 59.0929 145.443 58.9513 145.248 58.8265C144.542 58.3814 143.868 58.4117 143.138 58.8467C140.948 60.1517 138.623 60.3271 136.329 59.248C134.604 58.4353 133.62 56.9449 133.62 54.9924C133.62 51.6878 135.549 49.2835 138.881 48.4573C139.548 48.2921 140.245 47.9987 140.861 47.702C142.549 46.8927 143.4 46.3363 143.935 44.8593C144.153 44.2591 144.26 42.3741 144.193 41.7199C144.12 41.005 143.353 40.3778 142.633 40.3036C141.608 40.1957 140.358 40.8431 139.662 41.7637C138.309 43.5509 137.652 45.4191 136.312 45.4191C134.233 45.4191 134.782 42.9945 134.812 41.7367C134.812 41.5007 134.862 41.2613 134.956 41.0421C135.368 40.0676 136.045 39.4977 136.972 39.1335C138.597 38.4894 138.958 38.3174 140.687 38.2264C141.48 38.1859 141.691 38.2129 142.485 38.2669C143.282 38.3174 143.882 38.4253 144.649 38.6614C145.469 38.9143 146.35 39.3358 147 39.9057C148.072 40.8465 148.521 42.1819 148.778 43.5813C148.916 44.3265 148.926 46.3767 149.02 47.2096C149.04 47.8166 149.053 48.4169 149.073 48.9935C149.137 50.8009 149.073 52.8141 149.103 54.6249C149.123 55.8287 149.348 56.0783 150.5 56.4087C151.773 56.7763 152.004 57.5957 151.113 58.6006H151.103ZM144.307 53.765C144.257 53.475 144.25 53.1783 144.234 52.8849C144.197 52.2273 144.23 51.3607 144.123 50.7166C143.915 49.469 142.783 48.8687 141.638 49.3442C141.336 49.469 141.042 49.6139 140.75 49.7691C139.243 50.5548 138.506 52.0149 138.469 53.8223C138.483 53.9741 138.493 54.2371 138.523 54.5001C138.711 56.1794 140.991 57.7879 142.79 56.783C143.868 56.1794 144.518 55.0093 144.311 53.7684L144.307 53.765Z"
      fill="black"
    />
<path
      d="M164.296 40.978C164.296 41.1837 164.182 41.4164 164.055 41.5884C163.556 42.2696 162.836 42.6169 162.028 42.654C159.855 42.7551 158.803 44.1849 158.555 46.2115C158.381 47.6413 158.384 49.4723 158.337 50.9156C158.297 52.2004 158.307 53.4818 158.287 54.7665C158.274 55.5792 158.451 56.3143 158.917 57.0056C159.58 57.9936 159.168 58.9041 157.976 59.0558C157.269 59.1469 155.819 59.0862 155.819 59.0929C155.166 59.0929 154.506 59.1469 153.856 59.0828C152.55 58.9479 152.151 57.9565 152.831 56.8201C153.123 56.3346 153.36 55.7276 153.367 55.1712C153.411 51.4484 153.384 47.3446 153.374 43.6218C153.374 42.9103 153.126 42.2864 152.714 41.6963C151.873 40.4925 152.245 39.4876 153.655 39.0593C154.281 38.8705 154.925 38.7322 155.551 38.5434C156.197 38.3478 156.787 38.449 157.313 38.857C158.08 40.0136 159.017 39.7236 160.019 39.0897C160.441 38.8233 160.926 38.6446 161.375 38.3883C162.353 37.8285 163.723 38.0747 164.155 39.5955C164.279 40.0305 164.292 40.5093 164.296 40.9679V40.978Z"
      fill="black"
    />
<path
      d="M180.141 59.1671C179.002 59.2312 177.877 59.2481 176.762 58.7861C175.693 58.1016 175.057 58.7692 174.189 59.157C171.513 60.3507 168.911 60.2732 166.486 58.486C164.976 57.3766 164.001 55.8355 163.499 54.0652C162.42 50.2547 162.725 46.0632 164.771 42.6237C165.779 40.9275 167.226 39.4539 169.072 38.6682C170.458 38.0781 171.895 38.1624 173.329 38.3006C173.995 38.3647 174.812 38.7693 175.345 38.4153C175.864 38.068 175.941 37.4205 175.914 36.7562C175.904 36.5269 175.914 36.6921 175.924 36.4595C175.955 35.5321 175.71 34.9353 175.03 34.2406C174.21 33.401 174.36 32.4602 175.439 32.042C176.527 31.6205 177.686 31.3305 178.842 31.1383C179.749 30.9866 180.711 31.9004 180.778 32.8547C180.841 33.7719 180.834 34.6925 180.834 35.6131C180.834 38.1185 180.808 40.3441 180.824 42.8462C180.824 43.2205 180.821 53.8763 180.814 54.834C180.808 55.6433 180.999 56.1154 181.414 56.8235C182.107 58.0139 181.531 59.093 180.148 59.1705L180.141 59.1671ZM175.901 48.5821H175.914V46.7039C175.911 45.6181 175.921 44.05 175.894 42.9642C175.837 40.7184 173.362 38.7626 170.921 40.4756C170.267 40.9342 169.711 41.6795 169.367 42.418C168.151 45.0077 167.956 48.0291 168.345 50.8043C168.492 51.8598 168.861 53.1142 169.293 54.0955C169.892 55.4545 170.941 56.2975 172.458 56.628C173.999 56.9652 175.318 56.021 175.65 54.8745C175.794 54.3754 175.878 53.8426 175.888 53.3233C175.918 51.8092 175.898 50.0962 175.898 48.5821H175.901Z"
      fill="black"
    />
</g>
</svg>
